<svg width="224" height="227" viewBox="0 0 224 227" fill="none" xmlns="http://www.w3.org/2000/svg">
<path d="M112 224C173.856 224 224 173.856 224 112C224 50.1441 173.856 0 112 0C50.1441 0 0 50.1441 0 112C0 173.856 50.1441 224 112 224Z" fill="#EBFAFA"/>
<g filter="url(#filter0_d_5892_125681)">
<mask id="mask0_5892_125681" style="mask-type:alpha" maskUnits="userSpaceOnUse" x="0" y="0" width="224" height="224">
<path d="M112 224C173.856 224 224 173.856 224 112C224 50.1441 173.856 0 112 0C50.1441 0 0 50.1441 0 112C0 173.856 50.1441 224 112 224Z" fill="#EBFAFA"/>
</mask>
<g mask="url(#mask0_5892_125681)">
<path d="M176.213 64.2133H47.7866C43.6629 64.2133 40.3199 67.5563 40.3199 71.68V228.48C40.3199 232.604 43.6629 235.947 47.7866 235.947H176.213C180.337 235.947 183.68 232.604 183.68 228.48V71.68C183.68 67.5563 180.337 64.2133 176.213 64.2133Z" fill="white"/>
</g>
</g>
<path d="M98.56 79.1467H59.7333C57.2591 79.1467 55.2533 81.1524 55.2533 83.6267C55.2533 86.1009 57.2591 88.1067 59.7333 88.1067H98.56C101.034 88.1067 103.04 86.1009 103.04 83.6267C103.04 81.1524 101.034 79.1467 98.56 79.1467Z" fill="#E1EBFA"/>
<path d="M98.56 141.867H59.7333C57.2591 141.867 55.2533 143.872 55.2533 146.347C55.2533 148.821 57.2591 150.827 59.7333 150.827H98.56C101.034 150.827 103.04 148.821 103.04 146.347C103.04 143.872 101.034 141.867 98.56 141.867Z" fill="#E1EBFA"/>
<path d="M161.28 101.547H62.72C59.4211 101.547 56.7467 104.221 56.7467 107.52V122.453C56.7467 125.752 59.4211 128.427 62.72 128.427H161.28C164.579 128.427 167.253 125.752 167.253 122.453V107.52C167.253 104.221 164.579 101.547 161.28 101.547Z" stroke="#0010F7" stroke-width="2"/>
<path d="M161.28 162.773H62.72C58.5962 162.773 55.2533 166.116 55.2533 170.24V182.187C55.2533 186.31 58.5962 189.653 62.72 189.653H161.28C165.404 189.653 168.747 186.31 168.747 182.187V170.24C168.747 166.116 165.404 162.773 161.28 162.773Z" fill="#DFEAFB"/>
<path d="M79.1467 47.7867C82.4457 47.7867 85.12 45.1123 85.12 41.8134C85.12 38.5144 82.4457 35.84 79.1467 35.84C75.8477 35.84 73.1733 38.5144 73.1733 41.8134C73.1733 45.1123 75.8477 47.7867 79.1467 47.7867Z" fill="white"/>
<path d="M112 47.7867C115.299 47.7867 117.973 45.1123 117.973 41.8134C117.973 38.5144 115.299 35.84 112 35.84C108.701 35.84 106.027 38.5144 106.027 41.8134C106.027 45.1123 108.701 47.7867 112 47.7867Z" fill="#0010F7"/>
<path d="M144.853 47.7867C148.152 47.7867 150.827 45.1123 150.827 41.8134C150.827 38.5144 148.152 35.84 144.853 35.84C141.554 35.84 138.88 38.5144 138.88 41.8134C138.88 45.1123 141.554 47.7867 144.853 47.7867Z" fill="white"/>
<path d="M128.427 131.413C132.55 131.413 135.893 128.07 135.893 123.947C135.893 119.823 132.55 116.48 128.427 116.48C124.303 116.48 120.96 119.823 120.96 123.947C120.96 128.07 124.303 131.413 128.427 131.413Z" fill="#DFEAFB"/>
<path d="M134.261 155.859C133.066 155.859 131.951 155.859 130.935 155.795C129.685 155.71 128.481 155.282 127.458 154.558C126.435 153.834 125.631 152.841 125.135 151.69L118.835 139.238C118.373 138.7 118.142 138.002 118.193 137.294C118.244 136.587 118.572 135.928 119.107 135.462C119.544 135.11 120.091 134.92 120.652 134.926C121.066 134.938 121.472 135.039 121.842 135.223C122.213 135.407 122.539 135.67 122.798 135.992L125.659 139.897L125.703 139.948V125.111C125.703 124.375 125.995 123.669 126.516 123.149C127.036 122.629 127.742 122.336 128.478 122.336C129.214 122.336 129.92 122.629 130.441 123.149C130.961 123.669 131.253 124.375 131.253 125.111V134.818C131.221 134.461 131.264 134.101 131.378 133.761C131.493 133.421 131.677 133.109 131.919 132.844C132.161 132.58 132.455 132.368 132.783 132.223C133.112 132.079 133.466 132.004 133.825 132.004C134.184 132.004 134.538 132.079 134.866 132.223C135.195 132.368 135.489 132.58 135.731 132.844C135.973 133.109 136.157 133.421 136.272 133.761C136.386 134.101 136.429 134.461 136.396 134.818V136.842C136.364 136.484 136.407 136.124 136.521 135.785C136.636 135.445 136.82 135.133 137.062 134.868C137.304 134.603 137.598 134.392 137.927 134.247C138.255 134.102 138.609 134.028 138.968 134.028C139.327 134.028 139.681 134.102 140.01 134.247C140.338 134.392 140.632 134.603 140.874 134.868C141.116 135.133 141.3 135.445 141.415 135.785C141.529 136.124 141.572 136.484 141.54 136.842V138.401C141.507 138.043 141.55 137.683 141.664 137.344C141.779 137.004 141.963 136.692 142.205 136.427C142.447 136.162 142.741 135.951 143.07 135.806C143.398 135.661 143.752 135.587 144.111 135.587C144.47 135.587 144.824 135.661 145.153 135.806C145.481 135.951 145.775 136.162 146.017 136.427C146.259 136.692 146.443 137.004 146.558 137.344C146.672 137.683 146.715 138.043 146.683 138.401V147.864C146.632 150.774 145.316 155.682 140.688 155.682C140.352 155.696 137.506 155.861 134.267 155.861L134.261 155.859Z" fill="#0010F7" stroke="white"/>
<defs>
<filter id="filter0_d_5892_125681" x="34.3199" y="55.2133" width="155.36" height="171.787" filterUnits="userSpaceOnUse" color-interpolation-filters="sRGB">
<feFlood flood-opacity="0" result="BackgroundImageFix"/>
<feColorMatrix in="SourceAlpha" type="matrix" values="0 0 0 0 0 0 0 0 0 0 0 0 0 0 0 0 0 0 127 0" result="hardAlpha"/>
<feOffset dy="-3"/>
<feGaussianBlur stdDeviation="3"/>
<feColorMatrix type="matrix" values="0 0 0 0 0.788235 0 0 0 0 0.803922 0 0 0 0 0.85098 0 0 0 0.349 0"/>
<feBlend mode="normal" in2="BackgroundImageFix" result="effect1_dropShadow_5892_125681"/>
<feBlend mode="normal" in="SourceGraphic" in2="effect1_dropShadow_5892_125681" result="shape"/>
</filter>
</defs>
</svg>
