<svg width="29" height="34" viewBox="0 0 29 34" fill="none" xmlns="http://www.w3.org/2000/svg">
<mask id="mask0_5535_124318" style="mask-type:alpha" maskUnits="userSpaceOnUse" x="4" y="0" width="21" height="26">
<rect x="4" width="20.8809" height="25.8034" fill="#C4C4C4"/>
</mask>
<g mask="url(#mask0_5535_124318)">
<path fill-rule="evenodd" clip-rule="evenodd" d="M20.35 13.565L14.5245 17.3665L8.69904 13.565L14.5245 2.89209L20.35 13.565ZM-3.95542 34.496C-3.85759 34.496 -3.77554 34.4054 -3.77554 34.2974C-3.77554 33.057 -4.62443 31.9036 -5.79521 31.9071C-6.96598 31.9071 -7.80225 33.0639 -7.80225 34.3044C-7.80225 35.5449 -6.96914 36.7017 -5.79521 36.7017C-5.11041 36.7017 -4.413 36.3707 -4.06271 35.6947C-4.04693 35.6599 -4.03115 35.625 -4.04062 35.5623C-4.05009 35.4996 -4.08796 35.4473 -4.13845 35.4229C-4.23312 35.3776 -4.30886 35.4264 -4.35935 35.5031C-4.70964 36.0536 -5.17037 36.3149 -5.79521 36.3149C-6.70721 36.3149 -7.35413 35.4473 -7.44249 34.496H-3.95542ZM-5.79521 32.2869C-4.8832 32.2869 -4.22365 33.1545 -4.14792 34.1058H-7.44249C-7.35413 33.1545 -6.70721 32.2869 -5.79521 32.2869ZM0.626694 32.1928C0.626694 32.0987 0.554112 32.0012 0.453129 32.0012H-0.477809V30.5133C-0.477809 30.3914 -0.569325 30.3043 -0.686087 30.3252C-0.771291 30.3391 -0.828094 30.4262 -0.828094 30.5203V32.0012H-1.72748C-1.8253 32.0012 -1.90104 32.0953 -1.90104 32.1928C-1.90104 32.3008 -1.82846 32.3845 -1.72748 32.3845H-0.828094V36.4334C-0.828094 36.5275 -0.755512 36.625 -0.654529 36.625C-0.556702 36.625 -0.480965 36.531 -0.480965 36.4334V32.3845H0.453129C0.550957 32.3845 0.626694 32.3043 0.626694 32.1928ZM6.15552 36.409V33.956C6.15552 32.9106 5.56856 31.9176 4.54611 31.9176C3.92443 31.9176 3.38795 32.3183 3.08816 32.9106V28.353C3.08816 28.2589 3.01558 28.1613 2.91459 28.1613C2.81677 28.1613 2.74103 28.2554 2.74103 28.353V36.409C2.74103 36.531 2.83255 36.6181 2.94931 36.5972C3.03451 36.5832 3.09132 36.4961 3.09132 36.402V34.5623C3.09132 34.5565 3.08915 34.5322 3.08661 34.5037C3.08302 34.4634 3.07869 34.4148 3.07869 34.3985C3.01558 33.3357 3.47631 32.3043 4.54926 32.3043C5.38553 32.3043 5.80839 33.1301 5.80839 33.956V36.409C5.80839 36.517 5.88098 36.6007 5.98196 36.6007C6.06716 36.6007 6.15552 36.5205 6.15552 36.409ZM12.224 34.496C12.3218 34.496 12.4039 34.4054 12.4039 34.2974C12.4007 33.057 11.555 31.9036 10.3842 31.9071C9.21342 31.9071 8.37716 33.0639 8.37716 34.3044C8.37716 35.5449 9.21027 36.7017 10.3842 36.7017C11.069 36.7017 11.7664 36.3707 12.1167 35.6947C12.1325 35.6599 12.1482 35.625 12.1388 35.5623C12.1293 35.4996 12.0914 35.4473 12.041 35.4229C11.9463 35.3776 11.8705 35.4264 11.8201 35.5031C11.4698 36.0536 11.009 36.3149 10.3842 36.3149C9.47219 36.3149 8.82527 35.4473 8.73691 34.496H12.224ZM10.381 32.2869C11.293 32.2869 11.9526 33.1545 12.0283 34.1058H8.73375C8.82211 33.1545 9.46904 32.2869 10.381 32.2869ZM16.5221 32.3845C16.6199 32.3705 16.683 32.3043 16.683 32.1789C16.683 32.0674 16.582 32.0012 16.4968 31.9977C15.9004 31.9977 15.3261 32.5064 15.0389 33.043V32.1893C15.0389 32.0674 14.9474 31.9803 14.8306 32.0012C14.7454 32.0151 14.6886 32.1022 14.6886 32.1963V36.3951C14.6886 36.517 14.7801 36.6041 14.8969 36.5832C14.9821 36.5693 15.0389 36.4822 15.0389 36.3881V34.5483C15.0389 33.4716 15.4996 32.5482 16.5221 32.3845ZM22.2276 34.496C22.3255 34.496 22.4075 34.4054 22.4075 34.2974C22.4043 33.057 21.5586 31.9036 20.3878 31.9071C19.2171 31.9071 18.3808 33.0639 18.3808 34.3044C18.3808 35.5449 19.2139 36.7017 20.3878 36.7017C21.0726 36.7017 21.7701 36.3707 22.1203 35.6947C22.1361 35.6599 22.1519 35.625 22.1424 35.5623C22.133 35.4996 22.0951 35.4473 22.0446 35.4229C21.9499 35.3776 21.8742 35.4264 21.8237 35.5031C21.4734 36.0536 21.0127 36.3149 20.3878 36.3149C19.4758 36.3149 18.8289 35.4473 18.7406 34.496H22.2276ZM20.3847 32.2869C21.2967 32.2869 21.9562 33.1545 22.032 34.1058H18.7374C18.8258 33.1545 19.4727 32.2869 20.3847 32.2869ZM28.0342 36.4334V32.2277C28.0342 32.1406 27.9837 32.0604 27.9079 32.0325C27.7849 31.9942 27.6839 32.1057 27.6839 32.2172V33.7887C27.6839 35.1232 27.4093 36.3358 26.2354 36.3358C25.3991 36.3358 24.9763 35.51 24.9763 34.6842V32.2172C24.9763 32.1231 24.9037 32.0256 24.8027 32.0256C24.7049 32.0256 24.6291 32.1196 24.6291 32.2172V34.6842C24.6291 35.7295 25.2035 36.7226 26.2386 36.7226C26.8886 36.7226 27.3999 36.2696 27.687 35.6355V36.4334C27.687 36.5414 27.7596 36.625 27.8606 36.625C27.9458 36.625 28.0342 36.5449 28.0342 36.4334ZM36.8513 36.409V33.942C36.8513 32.8967 36.2643 31.9176 35.245 31.9141C34.5223 31.9141 33.9606 32.4228 33.6734 33.1406C33.4494 32.4089 32.9003 31.9141 32.1903 31.9141C31.5686 31.9141 31.0321 32.3008 30.7323 32.8932V32.1893C30.7323 32.0674 30.6408 31.9803 30.524 32.0012C30.4388 32.0151 30.382 32.1022 30.382 32.1963V36.409C30.382 36.531 30.4735 36.6181 30.5903 36.5972C30.6755 36.5832 30.7323 36.4961 30.7323 36.402V34.5483C30.7409 34.5388 30.7378 34.5097 30.7349 34.4834C30.7336 34.4712 30.7323 34.4596 30.7323 34.4507C30.6944 33.2242 31.1299 32.3008 32.1903 32.3008C33.0265 32.3008 33.4494 33.1127 33.4494 33.9385V36.4055C33.4494 36.5135 33.522 36.5972 33.623 36.5972C33.7082 36.5972 33.7965 36.517 33.7965 36.4055V34.5065C33.7965 33.5448 34.1973 32.3043 35.245 32.3043C36.0813 32.3043 36.5041 33.1162 36.5041 33.942V36.409C36.5041 36.517 36.5767 36.6007 36.6777 36.6007C36.7629 36.6007 36.8513 36.5205 36.8513 36.409ZM20.3546 14.7851L14.526 23.8481L8.70053 14.7851L14.526 18.5831L20.3546 14.7851Z" fill="#0010F7"/>
</g>
</svg>
