<svg width="16" height="16" viewBox="0 0 16 16" fill="none" xmlns="http://www.w3.org/2000/svg">
<path d="M14.1193 8.5291L14.128 8.53844L7.99998 14.6664L1.87198 8.53844L1.88065 8.5291C1.16902 7.69947 0.797207 6.63156 0.839705 5.53936C0.882204 4.44716 1.33588 3.41137 2.10981 2.63954C2.88375 1.86771 3.92078 1.41687 5.01309 1.37735C6.10539 1.33783 7.17229 1.71255 7.99998 2.42644C8.82767 1.71255 9.89456 1.33783 10.9869 1.37735C12.0792 1.41687 13.1162 1.86771 13.8901 2.63954C14.6641 3.41137 15.1178 4.44716 15.1603 5.53936C15.2028 6.63156 14.8309 7.69947 14.1193 8.5291V8.5291Z" fill="#DFE6E9"/>
</svg>
