<svg width="208" height="208" viewBox="0 0 208 208" fill="none" xmlns="http://www.w3.org/2000/svg">
<path d="M119.062 23.59C119.062 36.3474 119.062 49.1047 119.062 61.8447C119.062 65.4847 119.062 69.1074 119.062 72.7474C119.062 73.0767 119.582 73.0767 119.582 72.7474C119.582 59.99 119.582 47.2327 119.582 34.4927C119.582 30.8527 119.582 27.23 119.582 23.59C119.582 23.2607 119.062 23.2607 119.062 23.59Z" fill="#DFE6E9"/>
<path d="M119.063 23.4001C132.773 23.6255 146.484 24.0068 160.195 24.5441C160.524 24.5615 160.524 24.0415 160.195 24.0241C146.484 23.4868 132.773 23.1055 119.063 22.8801C118.733 22.8801 118.733 23.4001 119.063 23.4001Z" fill="#DFE6E9"/>
<path d="M119.496 73.0596C132.34 73.9956 145.097 75.7983 157.837 77.6183C158.167 77.6703 158.305 77.1676 157.976 77.1156C145.184 75.2956 132.375 73.4929 119.496 72.5396C119.167 72.5223 119.167 73.0423 119.496 73.0596Z" fill="#DFE6E9"/>
<path d="M159.935 24.6478C159.935 38.4624 159.935 52.2598 159.935 66.0744C159.935 69.9918 159.935 73.8918 159.935 77.8091C159.935 78.1384 160.455 78.1384 160.455 77.8091C160.455 63.9944 160.455 50.1971 160.455 36.3824C160.455 32.4651 160.455 28.5651 160.455 24.6478C160.455 24.3184 159.935 24.3184 159.935 24.6478Z" fill="#DFE6E9"/>
<path d="M157.525 77.5835C158.374 77.7049 159.224 77.8609 160.056 78.0169C160.385 78.0862 160.524 77.5835 160.194 77.5142C159.345 77.3409 158.513 77.2022 157.664 77.0809C157.334 77.0462 157.196 77.5315 157.525 77.5835Z" fill="#DFE6E9"/>
<path d="M119.565 46.3142C126.533 46.4009 133.467 47.0942 140.365 48.0475C143.745 48.5155 147.125 49.0355 150.488 49.5555C153.712 50.0582 156.988 50.7862 160.264 50.5088C160.593 50.4742 160.593 49.9542 160.264 49.9888C156.867 50.2662 153.452 49.4862 150.124 48.9662C146.692 48.4288 143.26 47.9088 139.828 47.4408C133.103 46.5395 126.36 45.8635 119.565 45.7769C119.219 45.7769 119.219 46.2969 119.565 46.3142Z" fill="#DFE6E9"/>
<path d="M122.252 46.5053C122.547 54.288 122.859 62.0706 123.153 69.8533C123.171 70.1826 123.691 70.1826 123.673 69.8533C123.379 62.0706 123.067 54.288 122.772 46.5053C122.755 46.176 122.235 46.176 122.252 46.5053Z" fill="#DFE6E9"/>
<path d="M123.777 70.1481C135.598 71.5868 147.437 72.8348 159.276 74.0655C159.605 74.1002 159.605 73.5802 159.276 73.5455C147.437 72.2975 135.598 71.0495 123.777 69.6281C123.448 69.5935 123.448 70.1135 123.777 70.1481Z" fill="#DFE6E9"/>
<path d="M119.825 72.6093C121.125 71.8639 122.408 71.1186 123.708 70.356C124.003 70.1826 123.743 69.732 123.448 69.9053C122.148 70.6506 120.865 71.396 119.565 72.1586C119.271 72.3319 119.531 72.7826 119.825 72.6093Z" fill="#DFE6E9"/>
<path d="M123.31 43.4715C133.848 44.2862 144.404 45.0835 154.943 45.8981C155.272 45.9155 155.272 45.3955 154.943 45.3781C144.404 44.5635 133.848 43.7662 123.31 42.9515C122.98 42.9168 122.98 43.4368 123.31 43.4715Z" fill="#DFE6E9"/>
<path d="M122.096 39.7623C133.571 39.8143 145.045 40.1436 156.52 40.7503C156.849 40.7676 156.849 40.2476 156.52 40.2303C145.063 39.6236 133.588 39.277 122.096 39.2423C121.749 39.2423 121.749 39.7623 122.096 39.7623Z" fill="#DFE6E9"/>
<path d="M124.141 34.4067C132.045 34.424 139.949 34.4414 147.853 34.4587C148.183 34.4587 148.183 33.9387 147.853 33.9387C139.949 33.9214 132.045 33.9041 124.141 33.8867C123.795 33.8867 123.795 34.4067 124.141 34.4067Z" fill="#DFE6E9"/>
<path d="M122.339 29.2412C133.103 29.1025 143.849 29.3972 154.596 30.1079C154.925 30.1252 154.925 29.6052 154.596 29.5879C143.867 28.8772 133.103 28.5826 122.339 28.7212C121.992 28.7212 121.992 29.2412 122.339 29.2412Z" fill="#DFE6E9"/>
<path d="M149.032 72.0019C148.807 71.4992 148.876 71.2219 149.24 71.1352C149.379 71.0832 149.517 71.0312 149.656 71.0139C149.829 70.9792 150.003 70.9446 150.159 70.9099C150.471 70.8232 150.765 70.6846 150.991 70.4419C151.407 70.0086 151.511 69.4539 151.407 68.8819C151.389 68.7779 151.268 68.6739 151.164 68.6912C149.725 68.8126 149.847 66.5592 151.32 67.0099C151.58 67.0966 151.736 66.7499 151.58 66.5766C150.436 65.3459 148.235 62.3472 149.743 60.7006C150.141 60.2672 150.852 59.9899 151.389 60.3366C151.719 60.5446 151.927 60.9432 152.1 61.2899C152.343 61.7232 152.551 62.2086 152.967 62.4859C153.903 63.1099 154.856 62.2432 155.012 61.3072C155.151 60.4406 154.735 59.5739 154.735 58.7072C154.735 58.1005 154.856 57.4245 155.307 56.9739C155.775 56.5059 156.572 56.3499 157.127 56.8005C157.317 56.9565 157.647 56.8179 157.56 56.5405C157.387 55.9685 157.317 55.3619 157.647 54.8245C158.028 54.2352 158.947 54.0099 159.328 54.7379C159.484 55.0325 159.935 54.7725 159.779 54.4779C159.38 53.7325 158.409 53.5592 157.699 53.9925C156.797 54.5472 156.78 55.7605 157.057 56.6619C157.196 56.5752 157.352 56.4885 157.491 56.4019C156.121 55.2579 154.475 56.5579 154.249 58.0659C154.18 58.5165 154.215 58.9672 154.284 59.4179C154.388 60.1285 154.769 61.0819 154.301 61.7406C153.331 63.1099 152.551 60.8739 152.1 60.3192C151.112 59.0885 149.327 59.7299 148.876 61.1339C148.217 63.1619 149.881 65.5366 151.181 66.9232C151.268 66.7846 151.355 66.6286 151.441 66.4899C150.627 66.2299 149.639 66.6979 149.5 67.5992C149.379 68.5352 150.263 69.2459 151.129 69.1766C151.043 69.1072 150.956 69.0552 150.887 68.9859C151.233 70.8406 148.616 70.0259 148.165 71.3952C147.94 72.0886 148.616 72.7126 149.275 72.4179C149.604 72.2966 149.344 71.8459 149.032 72.0019Z" fill="#DFE6E9"/>
<path d="M148.096 84.69C148.096 90.0113 148.096 95.3327 148.096 100.637C148.096 100.966 148.616 100.966 148.616 100.637C148.616 95.3153 148.616 89.994 148.616 84.69C148.616 84.3607 148.096 84.3607 148.096 84.69Z" fill="#DFE6E9"/>
<path d="M148.408 84.6732C154.942 86.1291 161.46 87.5851 167.994 89.0238C168.324 89.0931 168.462 88.5905 168.133 88.5211C161.598 87.0651 155.081 85.6092 148.546 84.1705C148.217 84.1012 148.078 84.6038 148.408 84.6732Z" fill="#DFE6E9"/>
<path d="M148.633 101.088C154.336 102.943 160.056 104.745 165.793 106.496C166.123 106.6 166.244 106.097 165.932 105.993C160.195 104.243 154.475 102.44 148.772 100.585C148.46 100.481 148.321 100.984 148.633 101.088Z" fill="#DFE6E9"/>
<path d="M167.908 88.7981C167.908 94.7261 167.908 100.654 167.908 106.565C167.908 106.894 168.428 106.894 168.428 106.565C168.428 100.637 168.428 94.7088 168.428 88.7981C168.428 88.4514 167.908 88.4514 167.908 88.7981Z" fill="#DFE6E9"/>
<path d="M165.481 106.513C166.4 106.634 167.319 106.773 168.22 106.894C168.549 106.946 168.688 106.443 168.359 106.391C167.44 106.27 166.521 106.131 165.62 106.01C165.291 105.975 165.152 106.478 165.481 106.513Z" fill="#DFE6E9"/>
<path d="M149.899 86.7355C149.639 90.8782 149.587 95.0209 149.725 99.1635C149.743 99.4929 150.263 99.4929 150.245 99.1635C150.107 95.0209 150.159 90.8782 150.419 86.7355C150.436 86.4062 149.916 86.4062 149.899 86.7355Z" fill="#DFE6E9"/>
<path d="M149.933 99.8916C155.324 101.33 160.923 102.474 166.036 104.728C166.348 104.866 166.608 104.416 166.296 104.277C161.131 102.006 155.497 100.828 150.055 99.3889C149.76 99.3022 149.621 99.8049 149.933 99.8916Z" fill="#DFE6E9"/>
<path d="M150.002 86.7358C155.601 87.6892 161.182 88.7465 166.746 89.8732C167.076 89.9425 167.214 89.4398 166.885 89.3705C161.321 88.2265 155.74 87.1865 150.141 86.2331C149.812 86.1811 149.673 86.6838 150.002 86.7358Z" fill="#DFE6E9"/>
<path d="M166.487 89.4744C166.088 94.3971 165.915 99.3371 165.932 104.277C165.932 104.606 166.452 104.606 166.452 104.277C166.417 99.3371 166.608 94.3971 167.007 89.4744C167.024 89.1451 166.504 89.1451 166.487 89.4744Z" fill="#DFE6E9"/>
<path d="M150.297 93.0623C152.291 94.033 154.371 94.8303 156.503 95.4543C156.832 95.541 156.971 95.0383 156.641 94.9516C154.544 94.345 152.516 93.5823 150.557 92.6116C150.263 92.473 150.003 92.9236 150.297 93.0623Z" fill="#DFE6E9"/>
<path d="M158.063 88.1744C157.231 90.5144 156.555 92.9064 156.017 95.3504C155.948 95.6797 156.451 95.8184 156.52 95.489C157.057 93.0624 157.733 90.6704 158.565 88.313C158.669 87.9837 158.167 87.8624 158.063 88.1744Z" fill="#DFE6E9"/>
<path d="M157.508 91.1554C159.068 90.8608 160.299 92.5594 160.559 93.8941C160.836 95.3155 160.195 96.6155 159.155 97.5861C158.045 98.6088 156.503 98.9208 155.151 98.1408C153.764 97.3435 153.331 95.5235 153.937 94.1194C154.076 93.8074 153.625 93.5474 153.487 93.8594C152.828 95.3848 153.14 97.2568 154.475 98.3141C155.913 99.4582 157.924 99.3195 159.293 98.1581C160.732 96.9448 161.529 95.1595 160.94 93.3221C160.472 91.8314 159.051 90.3581 157.369 90.6701C157.04 90.7221 157.179 91.2248 157.508 91.1554Z" fill="#DFE6E9"/>
<path d="M160.524 99.9438C161.183 100.36 161.772 100.828 162.292 101.382C162.517 101.625 162.899 101.261 162.656 101.018C162.101 100.429 161.46 99.9264 160.784 99.4931C160.507 99.3198 160.247 99.7704 160.524 99.9438Z" fill="#DFE6E9"/>
<path d="M162.188 97.3263C162.76 97.465 163.315 97.5864 163.887 97.725C164.216 97.7944 164.355 97.2917 164.025 97.2223C163.453 97.0837 162.899 96.9623 162.327 96.8236C161.997 96.7543 161.859 97.2397 162.188 97.3263Z" fill="#DFE6E9"/>
<path d="M161.685 91.745C162.396 91.7103 163.02 91.4676 163.574 91.0343C163.834 90.8263 163.47 90.4623 163.21 90.6703C162.777 91.0169 162.24 91.2076 161.685 91.2423C161.338 91.2423 161.338 91.7623 161.685 91.745Z" fill="#DFE6E9"/>
<path d="M158.375 86.0943C158.357 85.7129 158.305 85.1583 158.704 84.9503C159.085 84.7423 159.189 85.1236 159.172 85.4009C159.155 85.9036 158.999 86.3889 159.172 86.8743C159.293 87.1863 159.796 87.0476 159.675 86.7356C159.415 86.0596 160.073 84.9849 159.311 84.4996C158.947 84.2569 158.479 84.3956 158.184 84.6903C157.82 85.0716 157.82 85.6089 157.837 86.0943C157.855 86.4236 158.375 86.4236 158.375 86.0943Z" fill="#DFE6E9"/>
<path d="M40.4733 5.18236C40.4733 14.7677 40.4733 24.3357 40.4733 33.921C40.4733 34.2504 40.9933 34.2504 40.9933 33.921C40.9933 24.3357 40.9933 14.7677 40.9933 5.18236C40.9933 4.8357 40.4733 4.8357 40.4733 5.18236Z" fill="#DFE6E9"/>
<path d="M40.3693 34.077C34.0773 37.2663 28.9813 42.5183 25.9999 48.9143C25.8613 49.209 26.3119 49.4863 26.4506 49.1743C29.3973 42.865 34.4239 37.6823 40.6293 34.5276C40.9239 34.389 40.6639 33.9383 40.3693 34.077Z" fill="#DFE6E9"/>
<path d="M40.6987 34.3888C46.8174 36.9368 51.7574 41.9808 54.184 48.1342C54.3054 48.4462 54.8081 48.3075 54.6867 47.9955C52.1734 41.6342 47.1467 36.5035 40.8374 33.8862C40.5254 33.7648 40.3867 34.2675 40.6987 34.3888Z" fill="#DFE6E9"/>
<path d="M27.3517 49.4868C35.7064 45.6907 45.0664 47.1121 53.7851 48.5508C54.1144 48.6028 54.2531 48.1001 53.9237 48.0481C45.0317 46.5921 35.5851 45.1881 27.0744 49.0361C26.7971 49.1748 27.0571 49.6254 27.3517 49.4868Z" fill="#DFE6E9"/>
<path d="M37.544 47.268C37.0413 48.36 36.8333 49.6773 37.3707 50.804C37.96 52.052 39.416 52.6066 40.7333 52.6413C41.964 52.676 43.264 52.156 43.888 51.0293C44.46 49.972 44.3907 48.6893 43.5587 47.788C43.3333 47.5453 42.9694 47.9093 43.1947 48.152C43.9054 48.9146 43.888 50.0933 43.316 50.9426C42.7094 51.8613 41.5307 52.1733 40.4733 52.0866C39.3813 52 38.2373 51.4973 37.804 50.44C37.4053 49.4866 37.5787 48.412 37.9947 47.4933C38.1334 47.216 37.6827 46.956 37.544 47.268Z" fill="#DFE6E9"/>
<path d="M15.0799 63.6998C18.4426 61.5505 21.8226 59.4012 25.1853 57.2692C25.4626 57.0959 25.2026 56.6452 24.9253 56.8185C21.5626 58.9679 18.1826 61.1172 14.8199 63.2492C14.5253 63.4398 14.7853 63.8905 15.0799 63.6998Z" fill="#DFE6E9"/>
<path d="M16.9173 73.9787C19.7773 71.3614 22.4986 68.6054 25.0813 65.7107C25.3066 65.468 24.9426 65.0867 24.7173 65.3467C22.1346 68.2414 19.4133 70.9974 16.5533 73.6147C16.3106 73.8401 16.6746 74.2041 16.9173 73.9787Z" fill="#DFE6E9"/>
<path d="M30.5586 72.3141C27.9586 79.0048 25.5319 85.7821 23.2959 92.6115C23.1919 92.9235 23.6946 93.0621 23.7986 92.7501C26.0346 85.9208 28.4613 79.1608 31.0613 72.4528C31.1826 72.1408 30.6799 72.0194 30.5586 72.3141Z" fill="#DFE6E9"/>
<path d="M41.3571 67.5822C43.3851 72.9382 45.4305 78.2943 47.4585 83.6329C47.5798 83.9449 48.0825 83.8063 47.9612 83.4943C45.9332 78.1383 43.8878 72.7822 41.8598 67.4436C41.7385 67.1316 41.2358 67.2702 41.3571 67.5822Z" fill="#DFE6E9"/>
<path d="M50.908 60.1466C53.9414 62.6946 56.784 65.4679 59.4187 68.4319C59.644 68.6746 60.008 68.3106 59.7827 68.0679C57.148 65.1039 54.3053 62.3479 51.272 59.7826C51.0294 59.5572 50.6654 59.9212 50.908 60.1466Z" fill="#DFE6E9"/>
<path d="M55.5705 53.0393C57.9279 54.2006 60.3025 55.3446 62.6598 56.506C62.9545 56.6447 63.2318 56.2113 62.9198 56.0553C60.5625 54.894 58.1879 53.75 55.8305 52.5886C55.5359 52.45 55.2759 52.8833 55.5705 53.0393Z" fill="#DFE6E9"/>
<path d="M40.82 134.593C44.6506 131.3 49.5906 129.982 54.392 128.769C56.836 128.145 59.2626 127.521 61.6546 126.689C64.4106 125.736 67.0973 124.574 69.7666 123.413C70.0786 123.274 69.8013 122.841 69.5066 122.962C66.664 124.193 63.8213 125.424 60.892 126.412C58.448 127.226 55.952 127.833 53.456 128.474C48.8453 129.67 44.148 131.057 40.4733 134.229C40.196 134.437 40.56 134.801 40.82 134.593Z" fill="#DFE6E9"/>
<path d="M73.9787 45.5519C85.28 46.2452 96.5121 47.7358 107.623 49.9892C107.952 50.0585 108.091 49.5558 107.761 49.4865C96.6161 47.2158 85.3321 45.7252 73.996 45.0145C73.632 45.0145 73.632 45.5345 73.9787 45.5519Z" fill="#DFE6E9"/>
<path d="M73.996 45.1534C74.1173 44.4254 74.152 43.6801 74.1 42.9521C74.0826 42.6227 73.5626 42.6227 73.5799 42.9521C73.6319 43.6454 73.6146 44.3387 73.4933 45.0321C73.4413 45.3441 73.944 45.4827 73.996 45.1534Z" fill="#DFE6E9"/>
<path d="M73.9438 43.4548C85.2451 44.6161 96.5984 45.6387 107.726 48.0307C108.056 48.1001 108.194 47.5974 107.865 47.5281C96.6851 45.1361 85.2971 44.0961 73.9438 42.9348C73.6144 42.9001 73.6144 43.4201 73.9438 43.4548Z" fill="#DFE6E9"/>
<path d="M107.501 47.6834C107.432 48.3421 107.484 49.0007 107.605 49.6594C107.675 49.9887 108.177 49.8501 108.108 49.5207C107.987 48.9141 107.969 48.3074 108.021 47.6834C108.056 47.3541 107.536 47.3541 107.501 47.6834Z" fill="#DFE6E9"/>
<path d="M74.8105 37.4915C74.5852 39.5021 74.8105 41.4781 75.5039 43.3848C75.6252 43.6968 76.1279 43.5581 76.0065 43.2461C75.3305 41.3915 75.1052 39.4675 75.3305 37.4915C75.3652 37.1448 74.8452 37.1621 74.8105 37.4915Z" fill="#DFE6E9"/>
<path d="M74.724 37.5438C76.8906 38.1331 79.1093 38.3931 81.3453 38.2891C81.6746 38.2718 81.6746 37.7518 81.3453 37.7691C79.144 37.8558 76.9773 37.6131 74.8626 37.0411C74.5333 36.9545 74.3946 37.4571 74.724 37.5438Z" fill="#DFE6E9"/>
<path d="M80.9119 38.2717C81.1892 40.0397 80.9639 41.8077 80.2186 43.437C80.0799 43.7317 80.5306 44.009 80.6692 43.697C81.4665 41.929 81.7092 40.057 81.4145 38.133C81.3625 37.8037 80.8599 37.9423 80.9119 38.2717Z" fill="#DFE6E9"/>
<path d="M76.7172 37.3357C75.3653 35.5503 74.8626 33.3144 75.3479 31.1304C75.2093 31.165 75.0533 31.1997 74.9146 31.2517C76.6999 32.985 77.8266 35.2557 78.1212 37.7343C78.1559 38.0637 78.6759 38.0637 78.6412 37.7343C78.3465 35.117 77.1852 32.725 75.2786 30.8877C75.1399 30.749 74.8799 30.801 74.8453 31.009C74.3426 33.3317 74.8453 35.7237 76.2666 37.613C76.4572 37.8557 76.9079 37.5957 76.7172 37.3357Z" fill="#DFE6E9"/>
<path d="M78.0694 35.2902C78.3121 34.0595 78.6934 32.8809 79.2654 31.7715C79.5254 31.2515 79.8374 30.7489 80.1841 30.2635C80.4268 29.9342 80.4268 29.7262 80.5828 30.1075C80.6868 30.3675 80.7215 30.8529 80.7561 31.1129C81.0161 33.5049 80.3054 35.9315 78.8148 37.8209C78.6068 38.0809 78.9708 38.4449 79.1788 38.1849C80.9641 35.9142 81.8655 32.6902 81.0508 29.8475C80.6694 28.5128 79.7681 29.9342 79.4041 30.4889C78.5028 31.9102 77.8961 33.5049 77.5668 35.1515C77.5148 35.4809 78.0174 35.6195 78.0694 35.2902Z" fill="#DFE6E9"/>
<path d="M85.8348 44.5462C85.9041 44.3036 85.9041 44.1302 85.8868 43.8703C85.8694 43.6623 85.6788 43.2289 85.7481 43.0556C86.0081 42.3449 87.6375 42.8649 88.1228 42.9169C89.8388 43.1249 91.5375 43.3503 93.2361 43.5929C96.5295 44.0609 99.8055 44.5982 103.064 45.1702C102.995 45.0836 102.943 44.9969 102.873 44.9276C102.925 45.2916 102.96 45.6556 103.012 46.0196C103.047 46.3489 103.567 46.3489 103.532 46.0196C103.48 45.6556 103.445 45.2916 103.393 44.9276C103.376 44.8236 103.324 44.7022 103.203 44.6849C99.3721 43.9916 95.5415 43.3849 91.6935 42.8649C89.9254 42.6223 88.0881 42.2409 86.3028 42.1889C85.9041 42.1716 85.5054 42.2409 85.2974 42.6396C85.0201 43.1943 85.4708 43.8183 85.3321 44.3902C85.2454 44.7369 85.7481 44.8756 85.8348 44.5462Z" fill="#DFE6E9"/>
<path d="M91.1732 42.605C90.5146 41.5997 91.9012 41.0623 92.6639 41.0623C93.3919 41.0623 94.1199 41.2357 94.8479 41.3397C96.1652 41.5303 97.4999 41.721 98.8172 41.929C100.117 42.1197 101.435 42.345 102.735 42.5877C103.324 42.709 103.913 42.8303 104.52 42.969C105.04 43.0903 107.155 43.3503 106.704 44.321C106.565 44.6157 107.016 44.893 107.155 44.581C107.883 43.0037 105.508 42.657 104.503 42.4317C102.405 41.9637 100.291 41.617 98.1586 41.305C97.1012 41.149 96.0612 40.993 95.0039 40.8543C94.0679 40.7157 93.0452 40.4383 92.0919 40.5943C91.0346 40.7503 90.0812 41.8597 90.7572 42.8823C90.9132 43.1423 91.3639 42.8823 91.1732 42.605Z" fill="#DFE6E9"/>
<path d="M103.081 45.153C104.295 45.465 105.525 45.5344 106.773 45.3264C107.103 45.2744 106.964 44.7717 106.635 44.8237C105.491 44.997 104.347 44.945 103.22 44.6503C102.891 44.581 102.752 45.0837 103.081 45.153Z" fill="#DFE6E9"/>
<path d="M26.2601 49.5037C29.8481 49.9197 33.4534 50.145 37.0761 50.1797C37.4054 50.1797 37.4054 49.6597 37.0761 49.6597C33.4534 49.625 29.8481 49.3824 26.2601 48.9837C25.9307 48.949 25.9307 49.469 26.2601 49.5037Z" fill="#DFE6E9"/>
<path d="M44.3039 49.9545C47.6839 49.9545 50.9945 49.5385 54.3052 48.8798C54.6345 48.8105 54.4959 48.3078 54.1665 48.3772C50.9079 49.0358 47.6492 49.4345 44.3039 49.4345C43.9746 49.4345 43.9746 49.9545 44.3039 49.9545Z" fill="#DFE6E9"/>
<path d="M31.7893 61.3081C30.056 64.3934 28.3227 67.4787 26.5893 70.564C26.4333 70.8587 26.8667 71.1187 27.04 70.824C28.7733 67.7387 30.5067 64.6534 32.24 61.5681C32.396 61.2734 31.9453 61.0134 31.7893 61.3081Z" fill="#DFE6E9"/>
<path d="M43.4892 58.1183C44.6159 59.9036 45.6385 61.7236 46.5745 63.6129C46.7305 63.9076 47.1812 63.6476 47.0252 63.3529C46.0892 61.4809 45.0492 59.6436 43.9398 57.8583C43.7665 57.5636 43.3158 57.8236 43.4892 58.1183Z" fill="#DFE6E9"/>
<path d="M51.2025 54.4092C52.5198 55.1719 53.8198 55.9172 55.1371 56.6799C55.4318 56.8532 55.6918 56.4025 55.3971 56.2292C54.0798 55.4665 52.7798 54.7212 51.4625 53.9585C51.1678 53.7852 50.9078 54.2359 51.2025 54.4092Z" fill="#DFE6E9"/>
<path d="M85.7656 164.302C98.6096 160.818 111.263 156.693 123.691 151.944C129.827 149.604 135.894 147.108 141.891 144.456C144.942 143.121 147.958 141.734 150.974 140.313C153.938 138.926 156.85 137.418 159.848 136.136C163.28 134.662 166.955 133.501 170.734 133.744C174.53 133.986 177.962 135.772 181.272 137.505C181.567 137.661 181.827 137.21 181.532 137.054C178.759 135.598 175.916 134.108 172.814 133.484C169.798 132.894 166.73 133.258 163.8 134.125C160.68 135.044 157.751 136.482 154.839 137.886C151.806 139.36 148.738 140.798 145.67 142.185C133.224 147.836 120.502 152.828 107.554 157.161C100.308 159.588 93.0109 161.789 85.6442 163.782C85.2976 163.886 85.4362 164.389 85.7656 164.302Z" fill="#2D3436"/>
<path d="M172.155 138.545C174.599 139.031 176.904 138.095 179.314 137.835C182.07 137.54 184.756 138.337 187.322 139.256C192.279 141.024 197.028 143.312 201.5 146.068C201.795 146.241 202.055 145.791 201.76 145.617C197.34 142.896 192.643 140.625 187.755 138.857C185.363 137.991 182.85 137.193 180.267 137.245C177.58 137.315 174.98 138.563 172.294 138.043C171.964 137.973 171.826 138.476 172.155 138.545Z" fill="#2D3436"/>
<path d="M69.1255 177.337C67.2362 180.353 66.5602 183.872 66.1615 187.356C65.6935 191.429 65.3295 195.52 64.9309 199.593C64.8962 199.923 65.4162 199.923 65.4509 199.593C65.8322 195.711 66.1962 191.828 66.6122 187.945C67.0109 184.357 67.6175 180.717 69.5762 177.597C69.7496 177.32 69.3162 177.06 69.1255 177.337Z" fill="#2D3436"/>
<path d="M81.3973 184.86C78.312 190.008 77.896 196.109 77.9133 201.968C77.9133 202.297 78.4333 202.297 78.4333 201.968C78.416 196.196 78.7973 190.181 81.848 185.12C82.0213 184.825 81.5707 184.565 81.3973 184.86Z" fill="#2D3436"/>
<path d="M55.1375 182.988C58.1535 179.678 61.6375 176.419 65.4682 174.079C69.4549 171.652 74.0655 171.219 78.6069 170.889C78.9362 170.872 78.9362 170.352 78.6069 170.369C74.0829 170.716 69.4549 171.132 65.4682 173.472C63.5269 174.616 61.7935 176.055 60.0949 177.494C58.2229 179.088 56.4375 180.787 54.7735 182.607C54.5482 182.867 54.9122 183.231 55.1375 182.988Z" fill="#2D3436"/>
<path d="M134.039 128.422C143.642 130.173 153.192 132.201 162.674 134.506C163.003 134.593 163.142 134.09 162.812 134.004C153.331 131.698 143.78 129.67 134.178 127.92C133.848 127.868 133.71 128.37 134.039 128.422Z" fill="#2D3436"/>
<path d="M88.8509 92.5425C89.1283 93.7038 89.5096 95.6105 89.5096 97.9852C89.5096 104.711 86.4936 110.864 85.575 112.719C84.9856 113.897 83.807 116.151 83.0443 119.479C82.7843 120.571 82.6456 121.489 82.5763 122.113C83.2696 122.183 84.327 122.304 85.575 122.495C88.383 122.911 89.5616 123.275 91.2083 123.535C92.6296 123.743 94.6576 123.899 97.2229 123.621C97.1536 124.263 97.0323 125.216 96.8416 126.343C96.3909 129.151 96.1656 130.537 95.6283 131.595C94.7963 133.224 93.8776 133.692 94.1203 134.403C94.2936 134.923 94.9523 135.165 96.5643 135.529C99.2163 136.136 100.638 136.205 102.007 136.465C103.532 136.76 103.584 137.003 106.895 138.251C109.755 139.325 111.402 139.949 113.464 140.417C114.123 140.573 117.572 141.336 122.096 141.163C124.627 141.076 125.546 140.764 127.92 140.972C129.914 141.145 131.526 141.579 132.618 141.908C132.774 140.937 132.999 139.481 133.172 137.679C133.554 133.831 133.259 133.189 133.831 131.3C134.264 129.827 134.49 130.069 136.171 126.516C137.263 124.193 137.818 123.032 138.234 121.628C138.476 120.779 139.187 118.248 139.083 114.868C138.979 111.401 138.182 112.06 137.87 108.299C137.835 107.813 137.766 106.756 137.176 106.531C136.743 106.357 136.223 106.721 135.616 107.12C133.952 108.212 132.566 108.923 132.254 109.079C131.387 109.495 129.983 109.807 127.712 109.131C127.955 108.351 128.267 107.276 128.596 105.959C129.168 103.619 129.411 101.955 129.671 100.1C129.671 100.1 130.26 95.9745 129.48 93.5652C129.324 93.0972 129.099 92.7332 128.752 92.5945C128.406 92.4558 128.076 92.5945 127.73 92.6985C127.227 92.8545 126.516 92.9932 125.528 92.9932C125.39 92.7505 125.164 92.3865 124.852 92.0225C124.454 91.5545 123.656 90.7745 122.114 90.1678C120.207 89.4052 118.075 89.2838 116.012 89.2838C112.511 89.2838 112.251 89.6652 108.854 89.6825C107.068 89.6825 105.56 89.6998 103.532 89.3878C99.9963 88.8678 99.7363 88.1052 97.7776 88.3132C96.4083 88.4518 95.1429 89.1105 92.6123 90.4105C91.0176 91.2252 89.7523 91.9878 88.8509 92.5425Z" fill="white"/>
<path d="M107.796 105.005C111.904 104.416 115.631 106.756 119.375 108.021C123.205 109.304 127.279 109.772 131.317 109.442C131.647 109.408 131.647 108.888 131.317 108.922C127.001 109.269 122.668 108.697 118.612 107.206C115.059 105.889 111.557 103.948 107.657 104.52C107.328 104.554 107.467 105.04 107.796 105.005Z" fill="#2D3436"/>
<path d="M109.217 105.543C107.813 104.953 106.357 102.717 104.676 103.896C103.913 104.416 103.601 105.387 103.341 106.219C102.925 107.536 102.613 108.888 102.267 110.24C101.573 113.048 100.499 115.613 99.2681 118.231C98.1414 120.588 97.2054 122.928 96.7201 125.51C96.2694 127.92 96.0441 130.468 94.7961 132.634C94.4494 133.258 93.4441 134.177 94.2067 134.87C94.9347 135.546 96.3734 135.91 97.2921 136.153C98.5054 136.482 99.7361 136.552 101.001 136.604C102.544 136.656 103.861 137.037 105.248 137.644C107.761 138.718 110.257 139.845 112.892 140.59C116.012 141.474 118.993 141.492 122.217 141.284C125.667 141.058 129.047 141.318 132.392 142.202C132.531 142.237 132.652 142.15 132.704 142.029C133.969 138.822 133.033 135.321 133.935 132.045C134.836 128.769 137.159 126.117 138.181 122.876C139.187 119.756 139.36 116.393 138.979 113.152C138.805 111.592 138.493 110.049 138.077 108.541C137.869 107.761 137.679 105.872 136.448 106.323C135.703 106.6 134.975 107.189 134.316 107.64C133.588 108.125 132.86 108.628 132.097 109.079C130.485 110.067 128.769 110.847 126.845 110.829C126.516 110.829 126.516 111.349 126.845 111.349C129.636 111.367 131.976 109.807 134.212 108.316C134.784 107.935 135.356 107.536 135.963 107.189C136.032 107.137 136.309 106.929 136.431 106.912C137.28 106.773 137.003 107.068 137.193 107.397C137.401 107.744 137.471 108.299 137.575 108.68C138.008 110.24 138.32 111.835 138.493 113.464C138.823 116.619 138.632 119.86 137.627 122.893C136.639 125.892 134.576 128.37 133.588 131.352C132.444 134.784 133.536 138.528 132.184 141.908C132.288 141.856 132.392 141.786 132.496 141.734C130 141.076 127.452 140.729 124.869 140.712C122.183 140.694 119.496 141.162 116.809 140.885C114.192 140.608 111.661 139.793 109.217 138.822C106.981 137.938 104.693 136.552 102.284 136.222C101.053 136.049 99.7881 136.153 98.5574 135.945C97.4307 135.754 95.8361 135.46 94.9348 134.766C94.5361 134.454 94.4668 134.229 94.6748 133.761C94.7788 133.518 95.0041 133.293 95.1254 133.068C95.3681 132.652 95.5761 132.236 95.7494 131.785C96.1654 130.762 96.4254 129.688 96.6507 128.596C97.1014 126.325 97.3787 124.055 98.1934 121.871C99.0601 119.548 100.291 117.364 101.244 115.076C102.353 112.424 102.821 109.599 103.653 106.843C104.017 105.647 104.641 103.515 106.323 104.277C107.276 104.711 107.935 105.612 108.905 106.028C109.269 106.115 109.529 105.664 109.217 105.543Z" fill="#2D3436"/>
<path d="M116.567 111.124C118.924 111.956 121.368 112.181 123.847 111.817C124.176 111.765 124.037 111.263 123.708 111.315C121.333 111.661 118.976 111.419 116.705 110.621C116.376 110.5 116.255 111.003 116.567 111.124Z" fill="#2D3436"/>
<path d="M128.25 109.512C130 109.616 131.716 109.408 133.38 108.87C133.692 108.766 133.554 108.264 133.242 108.368C131.612 108.888 129.966 109.096 128.25 108.974C127.903 108.974 127.92 109.494 128.25 109.512Z" fill="#2D3436"/>
<path d="M89.4054 92.6638C90.8614 91.7798 92.3 90.8958 93.7561 90.0291C95.1427 89.1971 96.4947 88.5558 98.1587 88.6078C99.8921 88.6771 101.591 89.2491 103.289 89.5611C104.797 89.8211 106.34 89.9771 107.865 90.0291C113.447 90.1851 120.9 87.8105 125.112 92.8198C125.32 93.0798 125.701 92.6985 125.476 92.4558C121.212 87.3945 113.845 89.6131 108.195 89.5265C106.375 89.4918 104.555 89.3011 102.752 88.9545C101.123 88.6251 99.4934 88.0878 97.8294 88.1051C96.3214 88.1225 95.0214 88.6945 93.7387 89.4398C92.196 90.3411 90.6707 91.2945 89.1454 92.2305C88.8507 92.3865 89.1107 92.8371 89.4054 92.6638Z" fill="#2D3436"/>
<path d="M118.127 93.8081C120.207 94.0508 122.287 93.9988 124.349 93.6348C125.303 93.4614 126.239 93.1321 127.192 92.9934C127.712 92.9241 128.336 92.8721 128.804 93.1494C129.445 93.5134 129.497 94.3281 129.515 94.9868C129.584 99.6148 128.856 104.295 127.556 108.732C127.469 109.061 127.972 109.2 128.059 108.871C128.787 106.392 129.324 103.861 129.653 101.313C129.827 99.9961 129.931 98.6614 130 97.3268C130.052 96.2174 130.243 94.8828 129.913 93.8081C129.376 92.0054 127.279 92.4214 125.909 92.7681C123.344 93.4268 120.744 93.6174 118.127 93.3054C117.797 93.2361 117.797 93.7561 118.127 93.8081Z" fill="#2D3436"/>
<path d="M88.5735 92.4208C88.6255 95.3155 89.6135 98.1062 89.4228 101.036C89.2495 103.618 88.3828 106.079 87.3775 108.437C85.4708 112.909 82.9401 117.19 82.3508 122.095C82.3335 122.234 82.4895 122.355 82.6108 122.355C83.9282 122.321 85.1588 122.667 86.4242 122.979C87.6202 123.274 88.8162 123.517 90.0468 123.69C92.4735 124.019 94.9348 124.071 97.3788 123.863C97.7082 123.829 97.7082 123.309 97.3788 123.343C94.8135 123.569 92.2135 123.499 89.6655 123.118C87.3255 122.754 85.0202 121.801 82.6282 121.853C82.7148 121.939 82.8015 122.026 82.8882 122.113C83.5122 117.017 86.2855 112.597 88.1922 107.917C89.0935 105.715 89.8042 103.427 89.9775 101.053C90.1682 98.1408 89.1802 95.3502 89.1282 92.4382C89.0935 92.0742 88.5735 92.0742 88.5735 92.4208Z" fill="#2D3436"/>
<path opacity="0.13" d="M112.597 104.953C113.533 105.074 116.913 105.542 119.34 103.999C121.281 102.769 122.703 100.169 122.703 97.7767C122.703 96.1473 122.027 94.674 122.876 93.894C123.101 93.686 123.24 93.7207 124.263 93.4607C126.759 92.8367 127.088 92.3513 127.972 92.594C129.012 92.8713 129.549 93.7727 129.619 93.894C130.191 94.882 129.931 95.974 129.792 96.65C128.821 101.33 129.74 101.469 128.319 106.755C128.041 107.761 127.799 108.575 127.625 109.095C128.353 109.182 129.324 109.234 130.468 109.095C131.456 108.974 132.843 108.801 134.264 107.969C135.685 107.137 136.119 106.235 136.76 106.409C137.332 106.565 137.557 107.397 137.713 107.969C138.788 112.094 138.753 114.105 138.753 114.105C138.667 118.681 138.632 120.986 138.32 122.13C136.968 127.157 134.472 126.602 133.831 130.849C133.432 133.501 134.212 134.957 133.311 138.787C132.999 140.087 132.635 141.127 132.357 141.803C131.144 141.457 129.22 141.006 126.828 140.85C123.309 140.625 121.957 141.249 118.543 141.197C115.561 141.162 110.569 140.607 110.431 139.377C110.205 137.609 120.467 136.707 121.143 132.547C121.593 129.791 117.468 128.422 115.613 123.742C113.811 119.218 115.267 114.382 116.74 111.054C118.837 111.262 120.935 111.453 123.049 111.661C112.58 106.461 110.569 105.057 110.708 104.745C110.76 104.623 111.401 104.779 112.597 104.953Z" fill="#636E72"/>
<path opacity="0.16" d="M137.124 106.687C136.57 106.721 136.812 109.807 135.738 114.972C135.599 115.631 134.49 120.9 132.028 126.117C130.468 129.428 127.227 135.113 120.71 140.712C124.627 141.197 128.544 141.683 132.462 142.185C132.704 141.371 133.068 140.088 133.328 138.476C133.952 134.715 133.38 133.588 134.022 131.057C134.628 128.665 135.356 128.752 136.778 125.528C136.968 125.095 138.372 121.888 138.858 118.196C139.62 112.285 137.887 106.635 137.124 106.687Z" fill="#636E72"/>
<path opacity="0.18" d="M129.532 99.2506C129.186 99.1466 128.562 101.816 126.43 103.913C124.055 106.253 120.762 106.912 117.971 107.016C119.618 107.692 121.75 108.385 124.28 108.749C125.598 108.94 126.811 109.009 127.903 109.009C129.654 101.348 129.827 99.3373 129.532 99.2506Z" fill="#636E72"/>
<path d="M38.3587 171.012C38.844 174.305 39.3294 177.581 39.7974 180.874C32.5173 190.46 29.3453 195.712 30.2987 196.613C31.3213 197.584 37.1454 193.51 47.7707 184.393C47.4067 178.725 47.0427 173.074 46.6787 167.406C43.9054 168.602 41.132 169.816 38.3587 171.012Z" fill="#2D3436"/>
<path d="M67.0798 126.621C63.2492 127.869 55.6225 130.798 48.0305 137.211C44.8238 139.915 41.5652 142.706 38.8958 147.525C36.6078 151.65 35.9318 155.151 34.9265 160.629C34.1638 164.789 33.3665 170.751 33.4705 178.083C35.7585 177.91 38.1852 177.667 40.7505 177.286C43.9918 176.818 46.9905 176.229 49.7465 175.57C49.7118 171.947 50.0238 167.423 51.2025 162.345C51.9825 158.999 52.9705 156.087 53.9758 153.609C61.1692 146.953 67.8425 143.833 72.7652 142.238C78.7105 140.297 83.6332 140.071 87.4465 135.617C89.7172 132.982 92.1785 128.163 90.4972 125.425C87.1692 120.051 69.6278 125.789 67.0798 126.621Z" fill="white" stroke="#636E72" stroke-miterlimit="10"/>
<path opacity="0.14" d="M88.4174 123.934C87.3601 124.142 87.6548 126.898 86.7361 129.376C85.0721 133.814 80.1148 135.772 76.1281 137.35C52.6761 146.675 50.0934 148.512 48.0654 151.338C46.1414 154.024 45.3094 156.884 43.6628 162.604C41.9814 168.411 41.3747 173.455 41.1321 177.061C44.0094 176.593 46.8867 176.125 49.7641 175.657C49.7467 173.75 49.8334 171.705 50.0414 169.555C50.6828 163.125 52.2774 157.682 53.9761 153.418C55.0681 152.516 56.5934 151.303 58.4828 149.951C62.3308 147.195 65.1041 145.202 68.9001 143.659C71.8641 142.446 72.1068 142.879 79.5081 140.383C81.5534 139.69 82.6628 139.274 84.0148 138.407C87.1348 136.414 88.6774 133.848 89.3708 132.687C90.5321 130.711 91.3814 129.272 91.0521 127.435C90.7401 125.563 89.3361 123.743 88.4174 123.934Z" fill="#636E72"/>
<path opacity="0.16" d="M63.3708 146.086C57.0441 147.248 53.6641 150.108 52.1041 151.72C49.1575 154.77 47.9442 158.584 45.6215 166.072C44.2868 170.388 43.4375 174.028 42.9001 176.576C45.0668 176.298 47.2162 176.021 49.3828 175.726C49.4522 172.069 49.8335 168.984 50.2321 166.626C50.4748 165.136 50.8908 162.744 51.8268 159.676C52.5895 157.18 53.4388 155.082 54.1668 153.488C57.2348 151.026 60.3028 148.548 63.3708 146.086Z" fill="#636E72"/>
<path d="M41.6693 141.995C42.3453 141.302 43.3853 140.383 44.8413 139.742C48.724 138.043 52.728 139.465 55.1373 140.297C60.528 142.169 66.248 143.139 71.4133 145.531C79.2306 149.154 89.492 153.921 100.221 155.827C112.251 157.959 114.816 154.718 131.092 157.145C137.089 158.029 141.943 159.242 145.115 160.143C143.728 162.934 142.289 163.818 141.18 164.078C140.435 164.251 140.053 164.095 139.499 164.459C138.112 165.361 138.84 167.406 137.817 168.949C136.812 170.457 134.871 170.318 132.773 170.821C128.509 171.826 128.093 174.339 123.24 177.563C120.883 179.123 116.445 182.053 111.453 181.862C106.097 181.654 105.421 178.066 99.476 176.055C92.0573 173.559 89.804 178.083 79.8373 177.373C77.74 177.217 67.4093 176.489 60.1986 169.33C55.276 164.459 56.1773 160.906 50.6653 155.307C46.4533 151.026 41.7386 148.807 38.4973 147.629C38.896 146.797 39.3466 145.947 39.832 145.063C40.4386 143.954 41.0627 142.949 41.6693 141.995Z" fill="white" stroke="#636E72" stroke-miterlimit="10"/>
<path d="M43.8011 141.961C46.2104 142.03 48.5504 142.567 50.7518 143.555C50.9771 143.659 51.1851 143.33 50.9424 143.226C48.6718 142.203 46.2798 141.649 43.8011 141.562C43.5411 141.562 43.5411 141.961 43.8011 141.961Z" fill="#2D3436"/>
<path d="M49.5386 151.789C53.6292 154.129 55.7959 158.497 58.6386 162.067C61.6546 165.846 65.5373 168.879 69.9226 170.925C70.1479 171.029 70.3386 170.699 70.1133 170.595C65.5373 168.446 61.5159 165.239 58.4479 161.201C55.8133 157.734 53.6466 153.695 49.7466 151.459C49.5212 151.321 49.3132 151.667 49.5386 151.789Z" fill="#2D3436"/>
<path d="M124.124 163.887C129.012 163.939 133.9 163.662 138.753 163.073C138.996 163.038 138.996 162.657 138.753 162.674C133.9 163.263 129.012 163.541 124.124 163.489C123.864 163.506 123.864 163.887 124.124 163.887Z" fill="#2D3436"/>
<path d="M122.651 170.353C124.453 171.011 126.291 171.566 128.145 171.982C128.388 172.034 128.492 171.67 128.249 171.601C126.377 171.167 124.54 170.63 122.755 169.971C122.512 169.885 122.408 170.266 122.651 170.353Z" fill="#2D3436"/>
<path d="M61.8625 158.375C66.1439 162.171 71.3265 165.187 76.8732 166.695C79.6638 167.441 82.5065 167.562 85.3318 166.955C88.3132 166.314 91.0865 165.031 93.7385 163.541C93.9638 163.419 93.7558 163.073 93.5478 163.211C91.0172 164.633 88.3652 165.863 85.5398 166.522C82.5758 167.215 79.6119 167.077 76.6825 166.245C71.3092 164.719 66.3172 161.807 62.1399 158.115C61.9492 157.925 61.6719 158.202 61.8625 158.375Z" fill="#2D3436"/>
<path d="M86.008 156.087C87.152 156.313 88.192 156.815 89.024 157.647C89.9253 158.549 90.8787 160.646 89.1107 161.235C88.868 161.322 88.972 161.686 89.2147 161.617C90.5667 161.166 90.7573 159.641 90.1507 158.497C89.3533 156.989 87.724 156.035 86.112 155.723C85.8693 155.671 85.7653 156.053 86.008 156.087Z" fill="#2D3436"/>
<path d="M91.9359 166.244C95.6626 163.835 100.135 163.367 104.451 162.968C104.693 162.951 104.693 162.552 104.451 162.57C100.065 162.968 95.5239 163.454 91.7453 165.898C91.5373 166.036 91.7279 166.383 91.9359 166.244Z" fill="#2D3436"/>
<path d="M55.6401 142.965C59.4707 143.988 62.4868 146.605 65.6761 148.807C68.9868 151.095 72.6094 152.897 76.4228 154.163C76.6654 154.249 76.7694 153.868 76.5268 153.781C72.5401 152.464 68.8134 150.557 65.3987 148.131C62.3481 145.981 59.4014 143.555 55.7267 142.567C55.5014 142.532 55.3974 142.896 55.6401 142.965Z" fill="#2D3436"/>
<path opacity="0.13" d="M51.4279 139.066C56.3332 141.354 59.8519 143.764 62.1572 145.549C64.6185 147.456 65.4159 148.444 68.0852 150.108C69.5239 151.009 72.5052 152.864 76.7345 154.181C81.9345 155.81 84.1879 155.1 86.1812 157.388C86.4412 157.682 87.9319 159.381 87.7065 161.461C87.4292 164.061 84.6385 166.401 80.6692 166.99C81.7959 167.008 83.0612 166.938 84.4305 166.748C87.6719 166.297 90.2892 165.292 92.1959 164.356C91.5892 165.066 90.9652 165.881 91.1559 166.124C91.4159 166.453 93.0972 165.5 94.2759 164.928C96.4425 163.87 97.8812 163.732 102.995 162.934C114.279 161.184 115.371 160.681 118.924 161.01C121.663 161.27 124.852 161.946 124.852 162.536C124.835 163.142 121.316 163.368 121.333 163.662C121.368 164.026 127.608 165.725 133.813 163.506C135.217 163.004 138.736 161.548 139.967 162.865C140.313 163.229 140.487 163.836 141.093 163.992C141.821 164.182 142.584 163.541 143.087 163.108C143.624 162.657 144.491 161.773 145.08 160.23C144.751 160.126 144.283 159.988 143.728 159.832C142.549 159.502 139.048 158.532 133.969 157.665C132.392 157.405 129.445 156.902 125.961 156.625C118.664 156.036 116.74 156.954 110.119 156.781C108.42 156.729 103.307 156.538 97.0665 155.186C91.5025 153.973 87.4985 152.378 80.8252 149.657C75.0185 147.3 74.3599 146.71 70.0265 144.942C65.7799 143.192 59.5399 140.921 51.4279 139.066Z" fill="#636E72"/>
<path opacity="0.18" d="M101.851 176.679C103.671 175.917 105.837 175.189 108.333 174.686C109.373 174.478 110.361 174.322 111.297 174.201C111.02 174.859 110.725 175.518 110.413 176.194C109.616 177.945 108.784 179.557 107.935 181.082C105.907 179.626 103.879 178.153 101.851 176.679Z" fill="#636E72"/>
<path opacity="0.15" d="M133.206 166.765C128.804 167.77 125.545 167.476 125.528 167.718C125.51 167.926 127.712 168.325 137.453 169.244C137.748 168.568 138.06 167.822 138.337 167.008C138.597 166.245 138.805 165.517 138.978 164.841C137.626 165.447 135.668 166.21 133.206 166.765Z" fill="#636E72"/>
<path opacity="0.22" d="M86.1642 155.966C86.0948 156.105 87.7935 156.486 88.6428 157.959C89.2668 159.051 89.2148 160.317 88.9548 161.409C89.1282 161.339 90.1335 160.923 90.3935 159.97C90.6535 158.982 89.9255 158.133 89.5095 157.647C88.2268 156.122 86.2335 155.81 86.1642 155.966Z" fill="#636E72"/>
<path opacity="0.15" d="M110.483 156.607C116.48 156.018 124.124 155.879 132.808 157.335C137.245 158.08 141.249 159.103 144.733 160.212C144.595 160.698 144.283 161.512 143.607 162.292C143.607 162.292 142.913 163.09 141.839 163.644C139.187 165.014 135.044 163.644 134.801 163.558C135.945 163.402 137.211 163.142 138.563 162.76C139.343 162.535 140.053 162.292 140.729 162.032C138.441 161.079 135.928 160.178 133.207 159.398C124.557 156.884 116.688 156.399 110.483 156.607Z" fill="#636E72"/>
<path d="M120.467 162.101C120.657 161.876 120.935 161.893 121.663 161.755C122.529 161.581 123.205 161.356 123.673 161.183C126.291 160.455 128.197 159.484 129.497 158.704C132.271 157.023 133.519 155.428 135.183 155.792C136.24 156.035 137.211 157.023 137.124 157.855C137.055 158.565 136.257 159.033 132.271 160.541C126.083 162.881 126.655 162.257 124.8 163.228C123.101 164.129 122.148 164.892 121.281 164.511C120.432 164.095 119.999 162.639 120.467 162.101Z" fill="#2D3436"/>
<path d="M153.14 148.148C150.592 150.158 150.644 153.434 150.644 153.712C150.679 154.786 150.956 155.636 151.164 156.138C148.096 157.698 147.593 158.34 147.68 158.634C147.923 159.397 152.482 159.518 154.579 156.953C155.064 156.364 155.255 155.774 155.619 154.63C156.347 152.36 157.335 147.784 155.914 147.038C155.099 146.622 153.764 147.662 153.14 148.148Z" fill="#2D3436"/>
<path d="M134.784 157.335C135.165 156.555 136.101 156.381 137.835 155.983C139.741 155.549 142.965 154.804 144.768 154.128C146.848 153.331 148.079 152.221 150.193 150.315C154.423 146.501 154.613 144.144 156.52 144.057C158.895 143.953 161.859 147.437 161.564 150.54C161.339 152.967 159.207 154.336 155.237 156.867C154.319 157.456 150.349 159.917 144.231 161.252C140.591 162.049 138.008 162.587 136.206 161.079C135.079 160.143 134.264 158.409 134.784 157.335Z" fill="#2D3436"/>
<path d="M157.63 149.205C155.082 151.216 155.134 154.492 155.134 154.769C155.168 155.844 155.446 156.693 155.654 157.196C152.586 158.756 152.083 159.397 152.17 159.692C152.412 160.455 156.971 160.576 159.068 158.011C159.554 157.421 159.744 156.832 160.108 155.688C160.836 153.417 161.824 148.841 160.403 148.096C159.571 147.663 158.236 148.72 157.63 149.205Z" fill="#2D3436"/>
<path d="M154.665 145.739C154.977 145.444 155.393 145.028 155.844 144.491C156.121 144.161 157.161 142.913 158.288 140.504C158.929 139.152 159.432 138.077 159.779 136.483C160.108 134.94 160.385 133.571 159.709 132.392C159.155 131.421 158.513 130.901 158.513 130.901C157.941 130.451 157.456 130.277 157.473 130C157.508 129.757 157.941 129.549 158.34 129.549C159.553 129.532 160.455 131.664 160.611 132.011C161.408 133.9 161.113 135.703 160.975 136.327C160.888 136.691 160.888 136.587 160.229 138.563C159.588 140.504 159.605 140.539 159.328 141.319C158.392 143.953 157.872 145.409 156.659 145.86C156.312 145.999 155.653 146.12 154.665 145.739Z" fill="#2D3436"/>
<path d="M131.075 160.281C130.468 159.987 128.804 159.189 128.718 157.976C128.7 157.768 128.891 157.023 129.255 155.549C129.411 154.925 129.428 154.891 129.498 154.579C129.723 153.556 129.654 153.348 129.862 152.88C129.948 152.689 130.33 151.805 130.832 151.788C131.283 151.771 131.786 152.481 131.976 153.539C132.843 153.521 133.952 153.504 134.819 153.487C135.755 153.469 136.864 153.452 137.783 153.435C137.956 153.157 138.251 152.759 138.684 152.343C139.1 151.944 139.395 151.667 139.655 151.736C140.002 151.823 140.071 152.533 140.192 153.435C140.626 156.572 141.007 156.832 140.678 157.681C140.331 158.548 139.638 158.999 138.858 159.501C138.702 159.623 134.767 162.067 131.075 160.281Z" fill="#2D3436"/>
<path d="M130.537 156.173C131.144 156.052 131.664 156.416 132.132 156.763C132.201 156.815 132.271 156.693 132.201 156.659C131.699 156.277 131.161 155.931 130.503 156.052C130.433 156.052 130.468 156.191 130.537 156.173Z" fill="white"/>
<path d="M134.68 156.763C135.235 156.347 135.859 156.087 136.535 156C136.622 155.983 136.622 155.861 136.535 155.861C135.824 155.948 135.183 156.208 134.611 156.641C134.559 156.693 134.611 156.815 134.68 156.763Z" fill="white"/>
<path d="M131.664 154.89C131.838 154.752 132.046 154.7 132.271 154.752C132.358 154.769 132.392 154.648 132.306 154.63C132.046 154.561 131.786 154.63 131.578 154.804C131.508 154.856 131.595 154.942 131.664 154.89Z" fill="white"/>
<path d="M134.645 154.804C134.836 154.734 135.027 154.752 135.2 154.873C135.269 154.925 135.339 154.804 135.269 154.769C135.079 154.648 134.836 154.613 134.628 154.7C134.524 154.717 134.559 154.838 134.645 154.804Z" fill="white"/>
<path d="M133.242 157.508C133.259 157.49 133.276 157.473 133.294 157.438C133.259 157.421 133.242 157.404 133.207 157.386C133.224 157.473 133.207 157.56 133.155 157.629C133.172 157.612 133.207 157.612 133.224 157.595C133.172 157.525 133.172 157.456 133.207 157.404C133.172 157.421 133.138 157.421 133.103 157.438C133.103 157.508 133.103 157.577 133.12 157.647C133.155 157.664 133.19 157.681 133.224 157.699C133.224 157.647 133.224 157.577 133.242 157.508C133.19 157.508 133.155 157.508 133.103 157.508C133.138 157.699 133.12 157.907 133.016 158.08C132.982 158.149 132.895 158.271 132.808 158.323C132.531 158.461 132.531 158.097 132.531 157.976C132.531 157.889 132.392 157.889 132.392 157.976C132.392 158.132 132.41 158.305 132.531 158.427C132.652 158.531 132.791 158.513 132.912 158.409C133.19 158.201 133.276 157.82 133.207 157.49C133.19 157.421 133.086 157.438 133.086 157.508C133.086 157.577 133.086 157.647 133.086 157.716C133.086 157.768 133.155 157.803 133.19 157.768C133.294 157.647 133.294 157.49 133.172 157.386C133.138 157.352 133.086 157.369 133.068 157.421C133.016 157.56 132.999 157.716 133.172 157.768C133.207 157.785 133.224 157.768 133.242 157.733C133.328 157.629 133.346 157.508 133.311 157.386C133.294 157.352 133.259 157.334 133.224 157.334C133.12 157.369 133.086 157.421 133.068 157.525C133.103 157.595 133.242 157.595 133.242 157.508Z" fill="white"/>
<path d="M133.19 157.56C133.051 157.872 133.103 158.375 133.45 158.548C133.831 158.739 133.987 158.253 134.022 157.976C134.022 157.889 133.9 157.889 133.883 157.976C133.866 158.097 133.866 158.219 133.796 158.323C133.675 158.513 133.467 158.461 133.346 158.305C133.19 158.097 133.19 157.837 133.294 157.595C133.346 157.525 133.224 157.491 133.19 157.56Z" fill="white"/>
<path d="M131.751 157.179C131.352 156.971 130.971 156.746 130.607 156.503C130.538 156.451 130.468 156.572 130.538 156.607C130.902 156.85 131.283 157.075 131.682 157.283C131.768 157.335 131.838 157.214 131.751 157.179Z" fill="white"/>
<path d="M131.612 157.594C131.231 157.542 130.849 157.542 130.451 157.594C130.364 157.612 130.364 157.733 130.451 157.733C130.832 157.681 131.213 157.681 131.612 157.733C131.699 157.733 131.699 157.594 131.612 157.594Z" fill="white"/>
<path d="M131.595 157.803C131.231 157.924 130.902 158.15 130.659 158.444C130.607 158.514 130.694 158.6 130.746 158.531C130.971 158.236 131.283 158.028 131.63 157.924C131.716 157.89 131.682 157.768 131.595 157.803Z" fill="white"/>
<path d="M134.576 157.699C135.113 157.335 135.72 157.127 136.361 157.092C136.448 157.092 136.448 156.954 136.361 156.954C135.685 157.006 135.061 157.214 134.507 157.578C134.437 157.63 134.507 157.751 134.576 157.699Z" fill="white"/>
<path d="M134.819 158.011C135.321 157.855 135.824 157.907 136.275 158.15C136.344 158.184 136.413 158.08 136.344 158.046C135.859 157.786 135.321 157.734 134.784 157.89C134.697 157.907 134.732 158.028 134.819 158.011Z" fill="white"/>
<path d="M135.027 158.323C135.443 158.41 135.789 158.618 136.067 158.93C136.119 158.999 136.205 158.895 136.153 158.843C135.859 158.514 135.495 158.288 135.061 158.202C134.975 158.167 134.94 158.306 135.027 158.323Z" fill="white"/>
<path d="M139.325 152.602C139.1 152.949 138.944 153.33 138.875 153.729C138.875 153.781 138.909 153.816 138.961 153.816C139.031 153.798 139.031 153.781 139.1 153.746C139.065 153.764 139.447 153.486 139.325 153.746C139.291 153.798 139.36 153.868 139.412 153.833C139.481 153.833 139.551 153.85 139.62 153.85C139.568 153.92 139.655 154.006 139.707 153.937C139.759 153.868 139.776 153.781 139.707 153.712C139.603 153.608 139.464 153.66 139.343 153.729C139.377 153.764 139.395 153.781 139.429 153.816C139.481 153.712 139.533 153.573 139.395 153.486C139.204 153.365 139.065 153.642 138.927 153.694C138.961 153.729 138.979 153.746 139.013 153.781C139.083 153.382 139.239 153.018 139.447 152.689C139.481 152.602 139.377 152.533 139.325 152.602Z" fill="white"/>
<path d="M130.728 152.672C130.815 152.967 130.85 153.262 130.832 153.556C130.884 153.556 130.919 153.556 130.971 153.556C130.971 153.348 130.728 153.192 130.572 153.383C130.538 153.418 130.538 153.47 130.503 153.487C130.468 153.522 130.416 153.539 130.364 153.574C130.26 153.678 130.243 153.799 130.278 153.92C130.295 154.007 130.416 153.972 130.399 153.886C130.382 153.73 130.434 153.626 130.59 153.591C130.624 153.591 130.642 153.556 130.642 153.522C130.711 153.522 130.763 153.522 130.832 153.522C130.832 153.608 130.954 153.608 130.971 153.522C131.006 153.21 130.971 152.898 130.867 152.603C130.832 152.551 130.711 152.586 130.728 152.672Z" fill="white"/>
<path d="M124.246 164.667C124.436 164.441 124.714 164.459 125.442 164.32C126.308 164.147 126.984 163.921 127.452 163.748C130.07 163.02 131.976 162.049 133.276 161.27C136.05 159.588 137.298 157.994 138.962 158.358C140.019 158.6 140.99 159.588 140.903 160.42C140.834 161.131 140.036 161.599 136.05 163.107C129.862 165.447 130.434 164.823 128.579 165.793C126.88 166.695 125.927 167.457 125.06 167.076C124.194 166.677 123.778 165.221 124.246 164.667Z" fill="#2D3436"/>
<path d="M75.296 89.4053C74.0134 88.7293 72.3493 89.4746 71.4307 89.8906C69.8013 90.6186 67.964 92.1093 65.8667 97.0146C64.688 99.7533 63.1973 104.121 62.7293 109.945C60.892 110.743 58.292 111.609 55.12 111.765C51.688 111.921 49.9027 111.141 48.9493 112.251C47.7533 113.637 48.776 116.965 50.648 118.907C52.7453 121.091 55.6227 121.229 57.5467 121.316C58.9507 121.385 64.064 121.455 68.6747 117.936C73.1293 114.521 74.3253 109.876 75.6947 104.641C76.0414 103.151 79.0054 91.3466 75.296 89.4053Z" fill="white" stroke="#636E72" stroke-miterlimit="10"/>
<path opacity="0.12" d="M73.8748 89.2148C72.3668 89.7522 73.2162 94.0855 72.8348 98.9735C72.7482 100.014 72.1415 107.276 69.0735 111.644C64.1335 118.664 52.6935 118.266 50.0242 118.127C50.3362 118.664 50.8908 119.444 51.8095 120.103C52.8495 120.831 53.9762 121.108 55.4668 121.23C57.0268 121.351 59.5055 121.559 62.7815 120.571C64.4802 120.051 68.7962 118.751 71.6908 114.747C72.4882 113.655 72.9388 112.58 73.8575 110.431C74.3428 109.287 75.5042 106.392 76.3882 102.18C76.3882 102.18 76.9775 99.3548 76.9428 92.4215C76.9428 91.6415 76.7695 90.9655 76.2842 90.3588C75.7295 89.5962 74.5855 88.9548 73.8748 89.2148Z" fill="#636E72"/>
<path opacity="0.25" d="M75.8506 101.885C75.66 101.833 75.14 104.624 72.748 108.923C71.188 111.748 69.1253 115.336 65.3293 118.023C61.4466 120.761 57.7893 121.108 57.824 121.212C57.8586 121.351 65.26 121.108 70.304 116.237C75.9373 110.795 76.18 101.972 75.8506 101.885Z" fill="#636E72"/>
<path d="M75.5215 86.4071C73.1122 88.0711 71.6908 89.9084 71.0148 90.7924C67.0108 96.0617 66.5428 101.799 66.3868 104.312C66.0228 109.894 67.5482 111.09 67.7562 119.826C67.8255 122.72 67.7215 125.095 67.6348 126.586C69.7495 128.128 74.2908 131.023 80.7735 131.838C88.7295 132.843 94.8481 130.139 97.1708 128.96C98.5228 127.695 100.377 125.771 102.093 123.102C103.861 120.363 105.092 117.434 106.756 110.622C107.744 106.566 108.888 101.175 109.772 94.6577C108.385 92.6644 103.497 86.2164 94.5361 83.9111C92.9241 83.4951 83.3215 81.0337 75.5215 86.4071Z" fill="#B2BEC3"/>
<path opacity="0.09" d="M93.3573 83.6687C93.9293 85.4367 94.588 88.0194 94.796 91.174C95.16 96.426 94.12 101.037 91.9013 106.895C88.088 117.001 82.784 125.511 78.5374 131.474C80.1494 131.751 82.004 131.942 84.0494 131.925C89.6307 131.89 94.12 130.347 97.0667 129.03C98.0893 128.042 99.5107 126.534 100.949 124.506C101.573 123.639 103.463 120.883 105.196 116.203C108.351 107.71 109.391 97.1713 109.616 94.606C108.229 92.5434 105.473 89.094 100.845 86.4767C98.02 84.8647 95.3507 84.0847 93.3573 83.6687Z" fill="#636E72"/>
<path opacity="0.14" d="M109.166 97.5867C106.722 104.208 104.191 109.477 102.215 113.221C100.066 117.295 98.8349 119.583 96.7029 122.165C92.3869 127.383 87.2042 130.364 83.1482 132.097C84.8642 132.063 86.8922 131.889 89.1109 131.473C92.2135 130.867 94.7962 129.931 96.7896 129.029C98.0202 128.059 99.7016 126.568 101.314 124.419C103.394 121.628 104.572 118.768 106.098 112.944C107.138 108.992 108.299 103.809 109.166 97.5867Z" fill="#636E72"/>
<path d="M68.5707 155.411C66.9413 158.306 65.312 161.2 63.6827 164.095C52.052 167.215 46.332 169.434 46.54 170.734C46.748 172.138 53.8547 172.484 67.8253 171.756C70.9973 167.059 74.1693 162.344 77.3587 157.647C74.4293 156.902 71.5 156.156 68.5707 155.411Z" fill="#2D3436"/>
<path d="M99.2852 125.442C103.74 128.077 104.433 135.79 102.371 141.146C99.0425 149.743 88.9719 151.286 88.5386 151.338C92.4906 146.797 94.4492 144.526 94.4492 144.509C94.4319 144.491 88.3132 151.442 76.0933 165.343C74.8973 165.187 69.9226 164.425 66.4039 160.057C64.3586 157.526 63.6999 154.874 63.4746 153.453C70.7719 145.029 78.0519 136.622 85.3492 128.198C89.6132 124.177 95.4026 123.154 99.2852 125.442Z" fill="white" stroke="#636E72" stroke-miterlimit="10"/>
<path opacity="0.16" d="M99.6148 125.893C99.7535 128.146 99.6668 131.544 98.1761 135.166C96.2695 139.829 93.0108 142.533 90.7748 144.336C84.2921 149.57 76.8908 155.446 68.4668 161.79C69.0735 162.362 69.8361 162.986 70.7895 163.558C72.7828 164.772 74.6895 165.24 75.9895 165.43C80.1841 160.716 84.3788 156.001 88.5735 151.286C89.7695 151.113 91.4508 150.749 93.3228 149.969C95.0908 149.224 98.2108 147.854 100.62 144.561C102.7 141.684 103.151 138.824 103.376 137.264C103.636 135.426 103.983 133.104 102.943 130.417C102.024 128.094 100.499 126.621 99.6148 125.893Z" fill="#636E72"/>
<path opacity="0.19" d="M102.925 131.734C102.544 134.022 101.729 137.194 99.8398 140.574C96.2345 146.953 90.9305 150.125 88.4691 151.408C90.4105 151.096 94.4665 150.16 98.0718 146.884C99.0945 145.948 101.14 144.058 102.388 140.817C103.913 136.778 103.272 133.19 102.925 131.734Z" fill="#636E72"/>
<path opacity="0.12" d="M94.2066 144.439C93.7386 143.971 86.2679 150.523 71.7772 164.095C73.1466 164.581 74.4986 165.049 75.8679 165.534C88.5386 151.927 94.6573 144.89 94.2066 144.439Z" fill="#636E72"/>
<path d="M46.8 97.656C46.9734 97.656 47.164 97.656 47.3374 97.656C47.3894 97.4653 47.4414 97.2573 47.4934 97.0667C47.7014 97.5 48.048 98.2107 48.4814 99.0947C50.388 102.96 50.7694 103.601 51.116 104.763C51.3934 105.716 51.7227 107.085 51.8267 108.836C52.156 108.611 52.6414 108.299 53.2654 107.952C56.628 106.115 59.436 106.097 61.9667 105.647C63.856 105.3 66.508 104.537 69.6107 102.683C69.42 102.943 69.2294 103.22 69.0387 103.48C69.3334 103.584 69.6454 103.705 69.94 103.809C70.1134 104.035 70.3387 104.399 70.5294 104.867C71.5347 107.345 70.044 110.067 68.6054 112.563C62.7294 122.893 62.1227 123.431 61.0654 123.951C60.632 124.176 56.264 126.308 53.1614 124.332C52.52 123.933 51.3587 122.98 49.868 116.237C48.8454 111.644 48.724 109.079 47.7534 103.047C47.3894 100.759 47.0427 98.8867 46.8 97.656Z" fill="white" stroke="#636E72" stroke-miterlimit="10"/>
<path d="M47.7881 98.6095C49.2614 101.764 50.7174 104.971 51.1681 108.437C51.1854 108.524 51.3067 108.524 51.3067 108.437C50.8561 104.936 49.4001 101.712 47.9094 98.5402C47.8574 98.4709 47.7534 98.5402 47.7881 98.6095Z" fill="#2D3436"/>
<path d="M47.2332 98.0542C48.0998 99.8916 48.8105 101.781 49.3998 103.722C49.4172 103.809 49.5558 103.774 49.5212 103.688C48.9318 101.729 48.2038 99.8396 47.3372 97.9849C47.3025 97.9156 47.1985 97.9849 47.2332 98.0542Z" fill="#2D3436"/>
<path d="M49.6082 103.619C50.1802 105.179 50.5615 106.791 50.7869 108.437C50.8042 108.524 50.9255 108.524 50.9255 108.437C50.7002 106.773 50.3189 105.161 49.7468 103.584C49.7122 103.515 49.5735 103.549 49.6082 103.619Z" fill="#2D3436"/>
<path d="M48.0999 101.157C48.8972 103.116 49.5906 105.127 50.1626 107.172C50.1799 107.259 50.3186 107.224 50.2839 107.137C49.7119 105.092 49.0186 103.081 48.2212 101.123C48.2039 101.036 48.0652 101.071 48.0999 101.157Z" fill="#2D3436"/>
<path d="M52.1388 109.269C54.3055 107.83 56.7322 106.894 59.3148 106.53C59.4015 106.513 59.3668 106.392 59.2802 106.409C56.6802 106.773 54.2535 107.709 52.0695 109.148C52.0002 109.2 52.0695 109.321 52.1388 109.269Z" fill="#2D3436"/>
<path d="M53.2134 109.061C55.4667 107.692 58.0147 107.172 60.5454 106.6C63.232 105.993 65.8493 105.179 68.3973 104.139C68.4667 104.104 68.432 103.983 68.3627 104.017C65.728 105.109 63.0067 105.924 60.216 106.548C57.772 107.103 55.3107 107.64 53.144 108.957C53.092 108.992 53.1441 109.096 53.2134 109.061Z" fill="#2D3436"/>
<path d="M52.7973 109.668C55.4666 108.403 58.1879 107.623 61.0479 106.929C63.856 106.236 66.5773 105.161 69.316 104.225C69.4026 104.191 69.368 104.069 69.2813 104.104C66.456 105.075 63.6306 106.201 60.7186 106.877C57.9626 107.536 55.3106 108.351 52.7279 109.564C52.6586 109.599 52.7279 109.703 52.7973 109.668Z" fill="#2D3436"/>
<path d="M46.7133 97.6211C47.9787 101.625 49.2613 105.612 50.5267 109.616C51.1507 109.824 51.7747 110.032 52.3987 110.24C58.3267 108.281 64.2373 106.34 70.1653 104.381C70.3733 104.554 70.5813 104.728 70.7893 104.918C71.4653 113.152 72.1587 121.368 72.8347 129.601C72.592 129.757 72.3667 129.896 72.124 130.052C66.1093 130.97 60.112 131.889 54.0973 132.808C53.2307 132.6 52.3813 132.392 51.5147 132.184C50.752 128.804 49.972 125.441 49.2093 122.061C48.0827 114.07 46.956 106.08 45.8293 98.0891C46.124 97.9158 46.4187 97.7771 46.7133 97.6211Z" fill="white" stroke="#636E72" stroke-miterlimit="10"/>
<path d="M50.2322 109.72C50.5095 117.225 51.0468 124.748 51.4628 132.253C51.4802 132.496 51.8615 132.496 51.8615 132.253C51.4455 124.748 50.9082 117.243 50.6308 109.72C50.6135 109.477 50.2322 109.477 50.2322 109.72Z" fill="#2D3436"/>
<path d="M52.0348 110.205C52.2775 112.338 52.3815 114.47 52.3815 116.619C52.3815 116.862 52.7628 116.862 52.7802 116.619C52.7802 114.47 52.6762 112.338 52.4335 110.205C52.3988 109.945 52.0002 109.945 52.0348 110.205Z" fill="#2D3436"/>
<path d="M56.7668 110.795C56.8708 112.095 56.9575 113.395 57.0615 114.695C60.8922 113.534 64.7228 112.355 68.5362 111.194C68.4148 109.842 68.2935 108.49 68.1895 107.138C64.3762 108.368 60.5802 109.582 56.7668 110.795Z" fill="#0010F7"/>
<path opacity="0.16" d="M62.816 106.982C62.8853 108.715 62.8333 112.598 60.6146 116.775C58.2573 121.212 54.808 123.5 53.3173 124.367C53.248 122.946 53.1613 121.524 53.092 120.12C52.5026 121.108 51.9306 122.096 51.3413 123.084C51.4626 126.17 51.6013 129.255 51.7226 132.358C52.5546 132.531 53.3866 132.704 54.236 132.895C60.0773 131.959 65.936 131.023 71.7773 130.087C72.0893 129.966 72.384 129.827 72.696 129.706C72.0373 121.368 71.3786 113.048 70.72 104.711C68.0853 105.474 65.4506 106.219 62.816 106.982Z" fill="#636E72"/>
<path opacity="0.1" d="M52.1214 110.361C52.0001 110.361 51.8614 113.568 51.9481 117.052C52.0521 122.009 52.5201 124.176 52.3814 128.908C52.3294 130.45 52.2428 131.716 52.1734 132.53C52.8148 132.617 53.4734 132.704 54.1148 132.79C53.9934 131.941 53.8201 130.71 53.6468 129.237C52.2948 118.213 52.3121 110.361 52.1214 110.361Z" fill="#636E72"/>
<path d="M46.8171 109.669C46.6264 109.738 46.6437 110.085 46.4877 111.697C46.3837 112.789 46.3491 112.806 46.3837 113.066C46.4704 113.794 46.7304 113.933 46.8171 114.765C46.8691 115.302 46.7651 115.371 46.8517 115.822C46.9557 116.377 47.1984 116.793 47.3891 117.053C47.3891 117.226 47.4237 117.521 47.5624 117.815C47.8397 118.353 48.4811 118.821 48.8277 118.647C49.0184 118.561 49.0704 118.197 49.1571 117.486C49.2437 116.827 49.1917 116.793 49.2611 116.03C49.3304 115.406 49.3824 115.285 49.3304 114.973C49.2784 114.591 49.1397 114.47 49.0011 114.071C48.8104 113.517 48.8971 113.309 48.7757 112.737C48.6024 111.783 48.1517 111.107 47.9091 110.743C47.6664 110.345 47.1291 109.565 46.8171 109.669Z" fill="white"/>
<path d="M46.6803 109.495C45.7443 111.523 46.6803 113.794 48.795 114.539C49.0376 114.626 49.1416 114.244 48.899 114.158C47.027 113.499 46.195 111.488 47.027 109.686C47.131 109.478 46.7843 109.27 46.6803 109.495Z" fill="#2D3436"/>
<path d="M46.7476 109.825C47.9956 110.986 48.7236 112.511 48.8276 114.21C48.8449 114.453 49.2262 114.453 49.2262 114.21C49.1222 112.407 48.3596 110.778 47.0249 109.547C46.8342 109.374 46.5569 109.651 46.7476 109.825Z" fill="#2D3436"/>
<path d="M46.245 111.922C45.7943 113.95 46.9903 115.874 49.053 116.307C49.2957 116.359 49.3997 115.978 49.157 115.926C47.3197 115.544 46.2103 113.863 46.6263 112.008C46.661 111.783 46.297 111.679 46.245 111.922Z" fill="#2D3436"/>
<path d="M46.6089 114.487C46.2449 116.029 47.1809 117.503 48.7409 117.797C48.9836 117.849 49.0876 117.468 48.8449 117.416C47.4929 117.173 46.6609 115.943 46.9729 114.591C47.0423 114.348 46.6783 114.244 46.6089 114.487Z" fill="#2D3436"/>
<path d="M47.1117 116.949C47.0424 117.694 47.4758 118.439 48.1691 118.717C48.4638 118.838 48.8451 118.855 49.0704 118.595C49.3131 118.318 49.2091 117.902 49.0704 117.607C48.9837 117.382 48.6024 117.486 48.6891 117.711C48.7758 117.902 48.9491 118.283 48.6717 118.405C48.4637 118.491 48.1344 118.283 47.9784 118.162C47.6144 117.867 47.4411 117.417 47.4931 116.949C47.5277 116.706 47.1464 116.706 47.1117 116.949Z" fill="#2D3436"/>
<path d="M48.8971 117.763C49.2784 117.763 49.4345 117.381 49.4865 117.052C49.5558 116.653 49.4865 116.237 49.2784 115.891C49.1571 115.665 48.8104 115.873 48.9491 116.081C49.0704 116.289 49.1398 116.515 49.1398 116.74C49.1398 116.861 49.1051 117.364 48.8971 117.364C48.6544 117.381 48.6544 117.763 48.8971 117.763Z" fill="#2D3436"/>
<path d="M49.3824 116.169C49.625 115.943 49.625 115.51 49.573 115.198C49.521 114.799 49.3477 114.453 49.0704 114.158C48.897 113.967 48.6197 114.245 48.793 114.435C48.9664 114.626 49.105 114.851 49.157 115.129C49.1917 115.319 49.2437 115.735 49.0877 115.891C48.9317 116.082 49.209 116.359 49.3824 116.169Z" fill="#2D3436"/>
<path d="M104.745 91.7286C100.308 91.7979 97.4308 98.5926 96.5641 100.638C95.3161 103.602 95.5414 104.833 93.7388 112.511C93.1148 115.215 92.5254 117.399 92.1441 118.803C90.5321 119.583 87.3775 120.814 83.3908 120.467C81.0161 120.259 78.3295 120.017 76.4055 118.058C74.5335 116.151 74.7241 114.019 72.7481 113.361C71.4655 112.927 69.9228 113.326 69.7321 113.915C69.6108 114.331 70.1828 114.661 70.9108 116.065C71.1708 116.585 71.3615 117.018 71.4655 117.347C69.1428 117.971 67.2015 118.214 65.7628 118.318C62.2788 118.561 59.9561 118.11 59.2628 119.341C58.9855 119.826 58.8815 120.779 59.3495 121.438C59.5921 121.785 59.9215 121.958 60.1295 122.045C60.0948 122.097 59.5921 122.738 59.8521 123.535C60.0948 124.281 60.7708 124.541 60.8401 124.558C60.8055 124.645 60.5108 125.355 60.9268 126.066C61.3255 126.742 62.0361 126.881 62.1228 126.881C62.0535 127.123 61.9841 127.539 62.1575 127.938C62.4175 128.562 63.0935 128.839 63.6828 129.03C66.8548 130.018 69.4721 129.602 69.4721 129.602C72.4361 129.134 74.6375 127.799 75.9201 126.846C77.2721 128.077 80.0455 130.261 84.1708 131.335C85.6441 131.717 90.2201 132.861 95.2468 130.971C100.585 128.978 103.272 124.766 105.595 121.126C108.091 117.209 109.009 113.898 110.223 109.547C111.939 103.377 112.771 100.222 111.228 96.9632C110.188 94.6406 107.675 91.6766 104.745 91.7286Z" fill="white" stroke="#636E72" stroke-miterlimit="10"/>
<path d="M59.8869 122.062C62.1576 122.807 64.5322 122.894 66.8375 122.339C67.0802 122.287 66.9762 121.906 66.7335 121.958C64.4802 122.495 62.1922 122.408 59.9909 121.68C59.7482 121.611 59.6442 121.975 59.8869 122.062Z" fill="#2D3436"/>
<path d="M60.8228 124.679C63.0415 125.234 65.3121 125.251 67.5481 124.766C67.7908 124.714 67.6868 124.333 67.4441 124.385C65.2774 124.853 63.0761 124.818 60.9268 124.298C60.6841 124.229 60.5801 124.61 60.8228 124.679Z" fill="#2D3436"/>
<path d="M61.8974 126.95C63.8907 127.557 65.9361 127.661 67.9641 127.245C68.2067 127.193 68.1027 126.812 67.8601 126.864C65.8841 127.262 63.9081 127.158 62.0014 126.569C61.7587 126.5 61.6547 126.881 61.8974 126.95Z" fill="#2D3436"/>
<path opacity="0.12" d="M108.767 93.3062C108.628 96.4955 108.125 101.279 106.392 106.809C104.381 113.222 102.249 120.017 95.8188 124.246C94.2068 125.303 89.9948 128.042 84.2228 127.557C79.9068 127.193 76.8041 125.217 75.3828 124.159C72.5921 125.477 70.1828 125.997 68.5881 126.205C66.5428 126.482 65.1041 126.395 64.7228 126.361C63.0761 126.239 61.7414 125.893 60.7708 125.563C61.1694 126.014 61.5681 126.465 61.9494 126.898C61.8974 127.227 61.8801 127.765 62.1921 128.233C62.5388 128.77 63.1454 128.978 64.2374 129.186C65.7281 129.463 66.4734 129.602 67.7908 129.585C68.9868 129.55 70.6681 129.498 72.6788 128.718C73.5108 128.389 74.6374 127.851 75.8334 126.898C76.5788 127.522 77.6881 128.371 79.1441 129.186C80.8254 130.139 84.3094 132.063 89.0934 132.029C90.4628 132.011 93.6348 131.959 97.0668 130.139C99.2681 128.961 100.603 127.574 101.955 126.118C104.797 123.067 106.253 120.173 107.397 117.833C109.217 114.123 109.945 111.298 111.02 107.017C112.32 101.938 112.199 100.395 111.973 99.2861C111.436 96.4955 109.876 94.4848 108.767 93.3062Z" fill="#636E72"/>
<path opacity="0.2" d="M111.453 103.723C109.807 109.443 107.779 113.915 106.184 116.983C102.267 124.558 99.5279 126.464 98.5746 127.088C95.3159 129.203 92.1092 129.619 90.7572 129.775C82.4546 130.676 76.1799 126.17 75.9199 126.69C75.7119 127.106 79.5079 130.278 84.7599 131.422C86.3199 131.768 90.9826 132.722 96.0439 130.468C99.7879 128.804 101.868 126.222 103.463 124.228C105.751 121.386 106.825 118.838 108.039 115.856C109.217 113.048 110.621 108.94 111.453 103.723Z" fill="#636E72"/>
<path opacity="0.12" d="M62.2787 127.955C63.492 128.337 65 128.666 66.7854 128.753C71.0494 128.943 74.3601 127.522 76.0934 126.621C75.4521 127.227 72.5227 129.862 68.12 129.775C65.2774 129.723 63.1974 128.562 62.2787 127.955Z" fill="#636E72"/>
<path d="M74.7066 63.1803C74.1346 64.1509 73.9959 65.9536 73.7186 69.5589C73.4239 73.4589 73.6319 75.2269 73.4932 78.1216C73.3892 80.3923 73.0772 83.6336 72.1586 87.5683C73.7186 90.5323 75.5906 91.6589 76.6132 92.1269C81.7786 94.519 88.2439 90.7403 92.5252 88.2269C94.6226 86.9963 96.2172 85.8003 97.2052 85.0029C96.7892 84.1709 96.2172 82.9229 95.7666 81.3283C95.0212 78.7629 95.0906 77.2203 94.8826 74.3256C94.3799 67.4789 94.3626 65.9536 93.3226 63.8736C92.8026 62.8336 92.3692 61.9323 91.4679 61.0829C87.1519 57.0443 77.4972 58.5003 74.7066 63.1803Z" fill="white" stroke="#636E72" stroke-miterlimit="10"/>
<path d="M73.3719 74.7067C72.6612 75.6947 71.3265 77.8267 70.8932 80.8773C70.7199 82.16 70.5638 84.6213 71.5865 87.4467C72.0372 88.6773 73.1292 91.5027 76.0585 93.496C77.7225 94.64 79.3692 95.056 80.3572 95.2467C79.7679 94.6053 79.1959 93.964 78.6065 93.3227C79.2305 93.6693 80.7212 94.38 82.7145 94.2933C83.3212 94.2587 85.2799 94.1027 87.0999 92.716C88.4346 91.6933 88.9892 90.532 89.9079 88.5213C91.1212 85.8867 91.9706 83.9973 91.9186 81.5187C91.8492 78.2947 90.3066 77.532 90.8612 74.516C90.9826 73.84 91.3639 71.76 92.6119 71.448C93.2012 71.3094 93.8426 71.604 94.1892 71.968C94.9346 72.748 94.8652 74.3427 93.7559 75.6427C94.2932 75.5213 95.5239 75.1227 96.3906 73.9787C97.7079 72.2107 97.3786 69.6627 96.1306 68.2067C95.8186 67.8427 95.2466 67.1667 94.3799 67.0627C93.2186 66.924 92.2479 67.9294 90.5319 69.9573C86.9439 74.204 86.9959 74.9493 85.1932 76.2667C83.0265 77.844 81.0679 78.1387 80.4959 78.2253C79.5252 78.3467 78.0692 78.52 76.4745 77.792C74.5679 76.8907 73.6665 75.296 73.3719 74.7067Z" fill="#2D3436"/>
<path d="M78.6586 69.8188C78.208 72.0721 77.948 74.3948 77.9653 76.7001C77.9653 77.2028 77.9653 77.9655 78.5893 78.1215C79.248 78.2775 80.2186 77.4628 80.704 77.1335C80.9813 76.9428 80.7213 76.4921 80.444 76.6828C80.0106 76.9775 78.572 78.0348 78.4853 77.0295C78.4333 76.2841 78.5026 75.4868 78.5373 74.7415C78.624 73.1295 78.8493 71.5348 79.1613 69.9575C79.2306 69.6455 78.728 69.5068 78.6586 69.8188Z" fill="#2D3436"/>
<path d="M75.9717 71.76C75.7117 71.344 75.6944 70.8414 75.9544 70.4254C75.7984 70.408 75.6424 70.3907 75.4864 70.356C75.6771 70.8414 75.7637 71.3614 75.6944 71.8814C75.8157 71.8294 75.9544 71.7774 76.0757 71.7254C76.0237 71.6907 75.9717 71.6734 75.9197 71.6387C75.6251 71.4827 75.3651 71.9334 75.6597 72.0894C75.7117 72.124 75.7637 72.1414 75.8157 72.1761C75.9544 72.2454 76.1797 72.1934 76.1971 72.0201C76.2837 71.396 76.2317 70.7894 75.9891 70.2174C75.9024 70.0094 75.6424 69.9574 75.5211 70.148C75.1744 70.72 75.1744 71.4307 75.5384 72.0027C75.6944 72.3147 76.1451 72.0547 75.9717 71.76Z" fill="#2D3436"/>
<path d="M83.4251 71.6045C83.3211 71.4138 83.2518 71.2232 83.2518 70.9978C83.2518 70.8938 83.2691 70.8071 83.2865 70.7031C83.3038 70.6512 83.3211 70.5992 83.3385 70.5472C83.4078 70.4432 83.3558 70.4258 83.1825 70.4778C83.1651 70.4952 83.3038 71.0325 83.3038 71.0845C83.3211 71.3272 83.2865 71.5698 83.2345 71.8125C83.3731 71.7778 83.5291 71.7431 83.6678 71.6911C83.5465 71.5871 83.4771 71.4831 83.4771 71.3098C83.4598 70.9805 82.9398 70.9805 82.9571 71.3098C82.9744 71.6045 83.0785 71.8645 83.3038 72.0551C83.4425 72.1765 83.6851 72.1418 83.7371 71.9338C83.8238 71.5178 83.8411 71.0845 83.7718 70.6685C83.7198 70.3912 83.6158 69.9405 83.2518 69.9752C82.9051 70.0098 82.8011 70.4778 82.7664 70.7552C82.7144 71.1365 82.8011 71.5005 82.9918 71.8471C83.1478 72.1591 83.5985 71.8991 83.4251 71.6045Z" fill="#2D3436"/>
<path d="M82.9572 70.6686C82.9919 70.9806 83.0092 71.2926 83.0439 71.6046C83.0786 71.934 83.5986 71.934 83.5639 71.6046C83.5292 71.2926 83.5119 70.9806 83.4772 70.6686C83.4426 70.3393 82.9226 70.3393 82.9572 70.6686Z" fill="#2D3436"/>
<path d="M82.9225 71.379C82.8705 71.6043 82.8532 71.8643 83.0265 72.0203C83.1998 72.1763 83.4772 72.211 83.6332 72.0203C83.7198 71.9163 83.7372 71.7603 83.6332 71.6563C83.5465 71.5696 83.3558 71.5523 83.2692 71.6563C83.2345 71.7083 83.3038 71.639 83.3385 71.6216C83.3558 71.6216 83.3905 71.6216 83.3732 71.6216C83.3558 71.6216 83.4078 71.639 83.3732 71.6216C83.3905 71.639 83.3905 71.6563 83.4078 71.6736C83.4252 71.691 83.4078 71.639 83.4078 71.6563C83.4078 71.6736 83.4078 71.6216 83.4078 71.6043C83.4078 71.639 83.4078 71.587 83.4078 71.587C83.4078 71.5523 83.4252 71.535 83.4252 71.5003C83.4598 71.3616 83.3905 71.2056 83.2518 71.1883C83.1132 71.171 82.9572 71.2403 82.9225 71.379Z" fill="#2D3436"/>
<path d="M75.4002 70.2699C75.2615 70.7899 75.2615 71.3445 75.4521 71.8645C75.5561 72.1765 76.0588 72.0378 75.9548 71.7258C75.7988 71.2925 75.7815 70.8592 75.9028 70.4085C75.9895 70.0965 75.4868 69.9579 75.4002 70.2699Z" fill="#2D3436"/>
<path d="M75.8677 71.1706C75.8157 70.9626 75.833 70.7372 75.885 70.5292C75.7117 70.4772 75.5557 70.4426 75.3824 70.3906C75.3131 70.7199 75.3131 71.0319 75.3651 71.3612C75.3824 71.4999 75.5557 71.5692 75.677 71.5345C75.8157 71.4999 75.885 71.3612 75.8504 71.2226C75.8157 70.9972 75.8157 70.7546 75.8677 70.5292C75.937 70.1999 75.4517 70.0613 75.3651 70.3906C75.2957 70.7026 75.2957 70.9972 75.3477 71.3092C75.4344 71.6385 75.9197 71.4999 75.8677 71.1706Z" fill="#2D3436"/>
<path d="M74.7413 69.2821C75.0187 68.4674 76.0067 68.3114 76.5613 68.9528C76.7347 69.1434 76.9947 68.8661 76.8387 68.6754C76.076 67.8088 74.7413 68.1034 74.3773 69.1781C74.2733 69.4208 74.6547 69.5248 74.7413 69.2821Z" fill="#2D3436"/>
<path d="M82.0907 69.2817C82.7147 68.2763 84.188 68.935 84.552 69.8017C84.6387 70.027 85.02 69.923 84.9334 69.6977C84.448 68.5017 82.576 67.791 81.7613 69.0737C81.6227 69.299 81.9693 69.4897 82.0907 69.2817Z" fill="#2D3436"/>
<path d="M67.6346 64.2894C77.1679 65.5548 86.6839 66.8028 96.2173 68.0681C97.2053 68.2068 97.2053 66.6294 96.2173 66.5081C86.6839 65.2428 77.1679 63.9948 67.6346 62.7294C66.6466 62.5908 66.6466 64.1508 67.6346 64.2894Z" fill="#2D3436"/>
<path d="M74.2906 63.631C74.516 62.487 75.0533 60.6151 76.4053 58.7084C76.9426 57.9457 77.8786 56.6111 79.4906 55.6577C82.5413 53.8377 87.2213 54.0111 90.6013 56.2991C93.912 58.535 95.5413 62.487 94.796 66.4217C87.9666 65.4857 81.12 64.567 74.2906 63.631Z" fill="#0010F7"/>
<path d="M83.6332 54.5658C86.3025 55.1031 88.2958 57.2698 88.5385 59.8178C88.7465 61.9151 87.7238 64.0125 85.9038 65.2605C88.9025 65.6418 91.8838 66.0405 94.8825 66.4218C95.0385 65.6938 95.1945 64.6018 95.0038 63.3191C94.5878 60.4071 92.8372 58.5698 92.0572 57.7725C91.4505 57.1658 89.2318 54.9644 85.7478 54.5658C84.8985 54.4618 84.1532 54.5138 83.6332 54.5658Z" fill="#2D3436"/>
<path opacity="0.24" d="M85.3841 66.6467C85.6614 67.6174 85.9388 68.9174 85.9214 70.4601C85.8868 73.4587 84.8294 75.7467 84.1534 76.9254C84.7254 76.6481 85.5401 76.1801 86.3201 75.4001C86.8748 74.8454 87.0828 74.4467 87.6721 73.5801C87.6721 73.5801 88.6601 72.1241 90.1334 70.3561C90.7054 69.6627 91.5548 68.6921 92.7334 67.6001C90.2721 67.2707 87.8281 66.9587 85.3841 66.6467Z" fill="#636E72"/>
<path opacity="0.22" d="M92.4214 71.4136C91.9707 71.587 91.7107 71.9336 91.5374 72.1763C91.3294 72.471 91.1041 72.887 90.9481 73.9963C90.8094 74.9496 90.6707 75.8163 90.8614 76.9256C91.0001 77.7576 91.1734 77.775 91.4507 78.7976C91.572 79.231 91.9534 80.6523 91.8667 82.3163C91.8147 83.5816 91.52 84.4656 91.104 85.7136C90.7227 86.8403 90.0987 88.3829 89.0587 90.1336C90.9654 89.0589 92.9067 87.8803 94.8654 86.6149C95.68 86.0949 96.4601 85.5749 97.2401 85.0376C96.8067 84.2923 96.3734 83.4256 96.0094 82.455C94.9347 79.6123 94.7787 77.0123 94.8654 75.1923C94.536 75.331 94.2067 75.4696 93.8947 75.6083C94.9174 73.9963 94.8654 72.3323 94.1027 71.7083C93.7561 71.3963 93.0454 71.171 92.4214 71.4136Z" fill="#636E72"/>
<path opacity="0.21" d="M94.4665 72.3497C94.3105 72.9911 94.0851 73.7364 93.7038 74.5511C93.4265 75.1404 93.1318 75.6431 92.8545 76.0764C93.3745 76.6311 94.2238 77.7231 94.5878 79.3004C94.9865 80.9991 94.6225 82.3684 94.2065 83.8764C93.9118 84.9858 93.3225 86.6324 92.1611 88.4178C93.7905 87.3084 95.4198 86.2164 97.0491 85.1071C96.4251 83.7204 95.7665 81.9004 95.3505 79.6818C95.0385 77.9831 94.9518 76.4404 94.9691 75.1751C94.5531 75.3311 94.1545 75.4871 93.7385 75.6431C93.9291 75.4524 94.3971 74.9324 94.5878 74.1177C94.7785 73.2857 94.5531 72.5924 94.4665 72.3497Z" fill="#636E72"/>
<path opacity="0.19" d="M85.2626 66.5776C87.3252 67.3056 89.4052 68.0336 91.4679 68.7616C91.9359 68.3803 92.4039 67.9816 92.8892 67.6003C90.3412 67.2536 87.8106 66.907 85.2626 66.5776Z" fill="#636E72"/>
</svg>
