<svg width="159" height="40" viewBox="0 0 159 40" fill="none" xmlns="http://www.w3.org/2000/svg">
<g clip-path="url(#clip0_5240_110912)">
<rect x="0.5" width="40" height="40" rx="7" fill="#0010F7"/>
<path d="M32.668 15.44C31.6028 15.14 31.1377 15.095 31.1377 15.095C30.9577 15.065 30.2526 14.945 29.2924 14.915C28.5273 14.795 27.7322 14.585 27.2071 14.15C26.637 13.67 25.6768 12.845 25.3018 12.65C25.2868 12.635 25.2718 12.635 25.2568 12.635C23.8165 11.6 22.0612 11 20.1709 11C18.0106 11 16.0453 11.765 14.515 13.04C14.0799 13.37 13.5549 13.82 13.1948 14.135C12.6697 14.585 11.8746 14.78 11.1095 14.9C10.1493 14.93 9.44418 15.065 9.26415 15.08C9.26415 15.08 8.84408 15.125 7.85392 15.395C7.41885 15.515 7.37384 16.115 7.77891 16.31C7.77891 16.31 7.79391 16.31 7.79391 16.325C8.43901 16.64 9.05411 17.15 9.81924 18.365C10.7344 19.805 10.8994 20.72 11.4845 22.1C12.4297 26.06 15.9552 29 20.1559 29C24.2066 29 27.6272 26.27 28.7223 22.535C29.4725 20.9 29.5775 19.955 30.5826 18.365C31.3478 17.15 31.9629 16.64 32.608 16.325C32.653 16.31 32.698 16.28 32.743 16.265C33.1181 16.1 33.073 15.545 32.668 15.44ZM16.7354 22.37C15.5352 22.04 14.7851 20.93 14.7851 20.93C14.7851 20.93 16.0753 19.985 17.2755 20.315C18.4757 20.645 19.1358 22.115 19.1358 22.115C19.1358 22.115 17.9356 22.7 16.7354 22.37ZM23.8765 22.37C22.6763 22.7 21.4761 22.1 21.4761 22.1C21.4761 22.1 22.1213 20.63 23.3365 20.3C24.5366 19.97 25.8269 20.915 25.8269 20.915C25.8269 20.915 25.0767 22.055 23.8765 22.37Z" fill="white"/>
<path d="M54.404 29V21.968L48.5 11.72H52.316L56.06 18.224L59.804 11.72H63.62L57.716 21.968V29H54.404ZM71.7523 29.36C70.0243 29.36 68.5323 28.984 67.2763 28.232C66.0283 27.48 65.0643 26.428 64.3843 25.076C63.7123 23.724 63.3763 22.152 63.3763 20.36C63.3763 18.568 63.7123 16.996 64.3843 15.644C65.0643 14.292 66.0283 13.24 67.2763 12.488C68.5323 11.736 70.0243 11.36 71.7523 11.36C73.4803 11.36 74.9683 11.736 76.2162 12.488C77.4723 13.24 78.4363 14.292 79.1083 15.644C79.7883 16.996 80.1283 18.568 80.1283 20.36C80.1283 22.152 79.7883 23.724 79.1083 25.076C78.4363 26.428 77.4723 27.48 76.2162 28.232C74.9683 28.984 73.4803 29.36 71.7523 29.36ZM71.7523 26.288C72.8483 26.304 73.7603 26.068 74.4883 25.58C75.2163 25.092 75.7603 24.4 76.1203 23.504C76.4883 22.608 76.6723 21.56 76.6723 20.36C76.6723 19.16 76.4883 18.12 76.1203 17.24C75.7603 16.36 75.2163 15.676 74.4883 15.188C73.7603 14.7 72.8483 14.448 71.7523 14.432C70.6563 14.416 69.7443 14.652 69.0163 15.14C68.2883 15.628 67.7403 16.32 67.3723 17.216C67.0123 18.112 66.8323 19.16 66.8323 20.36C66.8323 21.56 67.0123 22.6 67.3723 23.48C67.7403 24.36 68.2883 25.044 69.0163 25.532C69.7443 26.02 70.6563 26.272 71.7523 26.288ZM82.5238 29V11.72H88.1158C88.2518 11.72 88.5318 11.724 88.9558 11.732C89.3798 11.74 89.7878 11.768 90.1798 11.816C91.5718 11.984 92.7518 12.468 93.7198 13.268C94.6878 14.068 95.4238 15.084 95.9278 16.316C96.4318 17.548 96.6838 18.896 96.6838 20.36C96.6838 21.824 96.4318 23.172 95.9278 24.404C95.4238 25.636 94.6878 26.652 93.7198 27.452C92.7518 28.252 91.5718 28.736 90.1798 28.904C89.7878 28.952 89.3798 28.98 88.9558 28.988C88.5318 28.996 88.2518 29 88.1158 29H82.5238ZM85.8358 25.928H88.1158C88.3318 25.928 88.6238 25.924 88.9918 25.916C89.3598 25.9 89.6918 25.864 89.9878 25.808C90.7398 25.656 91.3518 25.304 91.8238 24.752C92.3038 24.2 92.6558 23.536 92.8798 22.76C93.1118 21.984 93.2278 21.184 93.2278 20.36C93.2278 19.496 93.1078 18.676 92.8678 17.9C92.6358 17.124 92.2798 16.468 91.7998 15.932C91.3198 15.396 90.7158 15.056 89.9878 14.912C89.6918 14.848 89.3598 14.812 88.9918 14.804C88.6238 14.796 88.3318 14.792 88.1158 14.792H85.8358V25.928ZM97.8941 29L103.174 11.72H108.046L113.326 29H109.966L105.262 13.76H105.886L101.254 29H97.8941ZM101.062 25.4V22.352H110.182V25.4H101.062Z" fill="#2D3436"/>
<path d="M116.005 29V25.736H119.269V29H116.005Z" fill="#0010F7"/>
<path d="M124.524 20L121.78 12.44H123.467L125.371 17.921L127.268 12.44H128.962L126.218 20H124.524ZM129.377 20V18.271H131.106V20H129.377ZM133.418 20V11.761L131.528 12.916V11.054L133.418 9.92H135.14V20H133.418ZM137.526 20V18.271H139.255V20H137.526ZM145.124 20.21C144.41 20.21 143.78 20.0583 143.234 19.755C142.688 19.447 142.261 19.02 141.953 18.474C141.649 17.928 141.498 17.298 141.498 16.584V13.336C141.498 12.622 141.649 11.992 141.953 11.446C142.261 10.9 142.688 10.4753 143.234 10.172C143.78 9.864 144.41 9.71 145.124 9.71C145.838 9.71 146.465 9.864 147.007 10.172C147.553 10.4753 147.98 10.9 148.288 11.446C148.596 11.992 148.75 12.622 148.75 13.336V16.584C148.75 17.298 148.596 17.928 148.288 18.474C147.98 19.02 147.553 19.447 147.007 19.755C146.465 20.0583 145.838 20.21 145.124 20.21ZM145.124 18.607C145.478 18.607 145.8 18.523 146.09 18.355C146.379 18.1823 146.608 17.9537 146.776 17.669C146.944 17.3797 147.028 17.0577 147.028 16.703V13.21C147.028 12.8507 146.944 12.5287 146.776 12.244C146.608 11.9547 146.379 11.726 146.09 11.558C145.8 11.3853 145.478 11.299 145.124 11.299C144.769 11.299 144.447 11.3853 144.158 11.558C143.868 11.726 143.64 11.9547 143.472 12.244C143.304 12.5287 143.22 12.8507 143.22 13.21V16.703C143.22 17.0577 143.304 17.3797 143.472 17.669C143.64 17.9537 143.868 18.1823 144.158 18.355C144.447 18.523 144.769 18.607 145.124 18.607ZM150.992 20V18.271H152.721V20H150.992ZM155.033 20V11.761L153.143 12.916V11.054L155.033 9.92H156.755V20H155.033Z" fill="#B2BEC3"/>
</g>
<defs>
<clipPath id="clip0_5240_110912">
<rect width="158" height="40" fill="white" transform="translate(0.5)"/>
</clipPath>
</defs>
</svg>
