<svg width="25" height="24" viewBox="0 0 25 24" fill="none" xmlns="http://www.w3.org/2000/svg">
<path d="M7.97614 13.4697C9.38614 13.4697 10.5161 14.6107 10.5161 16.0307V19.4397C10.5161 20.8497 9.38614 21.9997 7.97614 21.9997H4.59614C3.19614 21.9997 2.05614 20.8497 2.05614 19.4397V16.0307C2.05614 14.6107 3.19614 13.4697 4.59614 13.4697H7.97614ZM19.5162 13.4697C20.9162 13.4697 22.0562 14.6107 22.0562 16.0307V19.4397C22.0562 20.8497 20.9162 21.9997 19.5162 21.9997H16.1362C14.7262 21.9997 13.5962 20.8497 13.5962 19.4397V16.0307C13.5962 14.6107 14.7262 13.4697 16.1362 13.4697H19.5162ZM7.97614 2C9.38614 2 10.5161 3.15 10.5161 4.561V7.97C10.5161 9.39 9.38614 10.53 7.97614 10.53H4.59614C3.19614 10.53 2.05614 9.39 2.05614 7.97V4.561C2.05614 3.15 3.19614 2 4.59614 2H7.97614ZM19.5162 2C20.9162 2 22.0562 3.15 22.0562 4.561V7.97C22.0562 9.39 20.9162 10.53 19.5162 10.53H16.1362C14.7262 10.53 13.5962 9.39 13.5962 7.97V4.561C13.5962 3.15 14.7262 2 16.1362 2H19.5162Z" fill="#0010F7"/>
</svg>
