<svg width="25" height="24" viewBox="0 0 25 24" fill="none" xmlns="http://www.w3.org/2000/svg">
<path d="M9.4532 4.9595C9.94333 4.86776 10.4347 5.11248 10.6486 5.55479C10.7018 5.63505 10.7444 5.72164 10.7754 5.81245C10.9112 7.90929 11.0561 9.97059 11.192 12.0319C11.1889 12.2462 11.2225 12.4594 11.2916 12.6627C11.4541 13.0627 11.8585 13.3165 12.2968 13.2936L18.9529 12.8671L18.9982 12.8848L19.1197 12.8936C19.3603 12.9244 19.5847 13.0342 19.755 13.207C19.9537 13.4087 20.0626 13.6795 20.0579 13.9599C19.7955 17.782 16.9933 20.9755 13.1799 21.7982C9.36651 22.621 5.4573 20.8754 3.58491 17.5139C3.03435 16.5457 2.68643 15.4794 2.56159 14.3775C2.51316 14.051 2.49196 13.7212 2.49819 13.3913C2.51081 9.32706 5.40441 5.81907 9.4532 4.9595ZM13.4107 2.00082C17.9815 2.13765 21.8015 5.4558 22.4938 9.89063C22.4982 9.91711 22.4982 9.94411 22.4938 9.97059L22.4926 10.0958C22.4776 10.2613 22.4096 10.4191 22.2968 10.5458C22.1557 10.7043 21.9561 10.801 21.7422 10.8147L14.0627 11.3211L13.9362 11.3236C13.7266 11.3134 13.5256 11.2319 13.369 11.0909C13.1811 10.9218 13.0746 10.6828 13.0756 10.4326L12.5594 2.88932V2.76493C12.5688 2.55278 12.6638 2.353 12.8235 2.20966C12.9832 2.06632 13.1945 1.99119 13.4107 2.00082Z" fill="#0010F7"/>
</svg>
