<svg width="20" height="20" viewBox="0 0 20 20" fill="none" xmlns="http://www.w3.org/2000/svg">
<path d="M10.4419 0.000244141C11.1982 0.000244141 11.8829 0.420244 12.261 1.04024C12.445 1.34024 12.5676 1.71024 12.5369 2.10024C12.5165 2.40024 12.6085 2.70024 12.772 2.98024C13.2932 3.83024 14.448 4.15024 15.3473 3.67024C16.3591 3.09024 17.6365 3.44024 18.219 4.43024L18.9037 5.61024C19.4965 6.60024 19.1694 7.87024 18.1475 8.44024C17.2788 8.95024 16.9722 10.0802 17.4934 10.9402C17.6569 11.2102 17.8409 11.4402 18.127 11.5802C18.4847 11.7702 18.7607 12.0702 18.9548 12.3702C19.333 12.9902 19.3023 13.7502 18.9344 14.4202L18.219 15.6202C17.8409 16.2602 17.1357 16.6602 16.4102 16.6602C16.0525 16.6602 15.6539 16.5602 15.3269 16.3602C15.0612 16.1902 14.7546 16.1302 14.4276 16.1302C13.4158 16.1302 12.5676 16.9602 12.5369 17.9502C12.5369 19.1002 11.5967 20.0002 10.4215 20.0002H9.03163C7.84616 20.0002 6.90595 19.1002 6.90595 17.9502C6.88552 16.9602 6.03729 16.1302 5.02555 16.1302C4.68831 16.1302 4.38172 16.1902 4.12623 16.3602C3.7992 16.5602 3.39042 16.6602 3.04296 16.6602C2.30715 16.6602 1.602 16.2602 1.22387 15.6202L0.518721 14.4202C0.140597 13.7702 0.120157 12.9902 0.498282 12.3702C0.661795 12.0702 0.968382 11.7702 1.31585 11.5802C1.602 11.4402 1.78595 11.2102 1.95968 10.9402C2.47066 10.0802 2.16407 8.95024 1.29541 8.44024C0.283671 7.87024 -0.0433558 6.60024 0.53916 5.61024L1.22387 4.43024C1.81661 3.44024 3.08383 3.09024 4.10579 3.67024C4.99489 4.15024 6.14971 3.83024 6.6709 2.98024C6.83442 2.70024 6.92639 2.40024 6.90595 2.10024C6.88552 1.71024 6.99793 1.34024 7.1921 1.04024C7.57023 0.420244 8.25494 0.0202441 9.00097 0.000244141H10.4419ZM9.73678 7.18024C8.1323 7.18024 6.83442 8.44024 6.83442 10.0102C6.83442 11.5802 8.1323 12.8302 9.73678 12.8302C11.3412 12.8302 12.6085 11.5802 12.6085 10.0102C12.6085 8.44024 11.3412 7.18024 9.73678 7.18024Z" fill="#0010F7"/>
</svg>
