<svg width="25" height="23" viewBox="0 0 25 23" fill="none" xmlns="http://www.w3.org/2000/svg">
<path d="M18.3116 13.7235C18.0526 13.964 17.9336 14.3119 17.9926 14.6531L18.8816 19.3681C18.9566 19.7677 18.7806 20.1721 18.4316 20.4031C18.0896 20.6427 17.6346 20.6714 17.2616 20.4797L12.8326 18.266C12.6786 18.1874 12.5076 18.1452 12.3326 18.1405H12.0616C11.9676 18.1539 11.8756 18.1826 11.7916 18.2267L7.36164 20.451C7.14264 20.5564 6.89464 20.5938 6.65164 20.5564C6.05964 20.4491 5.66464 19.9086 5.76164 19.3384L6.65164 14.6234C6.71064 14.2793 6.59164 13.9295 6.33264 13.6852L2.72164 10.331C2.41964 10.0502 2.31464 9.62854 2.45264 9.24808C2.58664 8.86858 2.92864 8.59162 3.34164 8.52933L8.31164 7.83837C8.68964 7.801 9.02164 7.58058 9.19164 7.25475L11.3816 2.95183C11.4336 2.856 11.5006 2.76783 11.5816 2.69308L11.6716 2.626C11.7186 2.57616 11.7726 2.53495 11.8326 2.50141L11.9416 2.46308L12.1116 2.396H12.5326C12.9086 2.43337 13.2396 2.649 13.4126 2.971L15.6316 7.25475C15.7916 7.56812 16.1026 7.78566 16.4616 7.83837L21.4316 8.52933C21.8516 8.58683 22.2026 8.86475 22.3416 9.24808C22.4726 9.63237 22.3596 10.054 22.0516 10.331L18.3116 13.7235Z" fill="#0010F7"/>
</svg>
